<svg width="30" height="18" viewBox="0 0 30 18" fill="none" xmlns="http://www.w3.org/2000/svg">
<path d="M26.5996 7.5978C27.0262 7.04631 27.3649 6.60381 27.615 6.26996C29.4164 3.87497 30.1972 2.34504 29.9579 1.67802L29.864 1.5218C29.8016 1.42797 29.6399 1.3418 29.3798 1.26381C29.1194 1.18587 28.7862 1.17341 28.3803 1.22486L23.8819 1.25659C23.7778 1.24622 23.6736 1.24865 23.5694 1.26381C23.4653 1.27964 23.3977 1.29553 23.3663 1.31069C23.3349 1.32659 23.309 1.33932 23.2883 1.34969L23.2259 1.39658C23.1739 1.42763 23.1167 1.48246 23.0542 1.5608C22.9917 1.63908 22.9393 1.72981 22.8979 1.83429C22.4086 3.09417 21.8515 4.2658 21.2267 5.34878C20.8413 5.99444 20.4871 6.55456 20.1647 7.02771C19.8419 7.50194 19.5711 7.85067 19.3524 8.07412C19.1338 8.29796 18.9358 8.47796 18.7589 8.61288C18.5816 8.74875 18.4464 8.80567 18.353 8.78499C18.2591 8.7643 18.1705 8.74362 18.0874 8.72221C17.9415 8.62877 17.8242 8.50146 17.736 8.33972C17.6474 8.17872 17.5877 7.9755 17.5562 7.73063C17.5252 7.48611 17.5066 7.27506 17.5018 7.09776C17.4962 6.92086 17.499 6.67115 17.5097 6.34796C17.5201 6.0251 17.5252 5.80683 17.5252 5.69198C17.5252 5.2967 17.5331 4.867 17.5488 4.40347C17.5643 3.94029 17.5774 3.57296 17.5877 3.30218C17.5981 3.03178 17.6032 2.74516 17.6032 2.44304C17.6032 2.1416 17.5849 1.90428 17.5482 1.73223C17.5117 1.5608 17.4569 1.39421 17.3845 1.23247C17.3114 1.07141 17.2048 0.946187 17.064 0.857935C16.9234 0.769288 16.7491 0.699294 16.5409 0.646828C15.9887 0.521606 15.2858 0.454712 14.4322 0.443723C12.4953 0.423717 11.2509 0.548544 10.6991 0.818937C10.4804 0.933789 10.2824 1.08967 10.1055 1.28764C9.91791 1.51701 9.89204 1.64218 10.0276 1.66218C10.6525 1.75601 11.0947 1.98019 11.3551 2.33405L11.4489 2.52132C11.5217 2.65719 11.5945 2.89659 11.6676 3.24007C11.7404 3.58362 11.7873 3.96368 11.8083 4.38031C11.8604 5.14043 11.8604 5.79094 11.8083 6.3328C11.7562 6.8746 11.7069 7.29608 11.66 7.59752C11.6131 7.89964 11.5427 8.14417 11.4493 8.33144C11.3554 8.51938 11.293 8.6339 11.2616 8.6756C11.2303 8.71697 11.2044 8.74317 11.1837 8.7536C11.0482 8.80533 10.9078 8.83154 10.7619 8.83154C10.616 8.83154 10.4391 8.75839 10.2308 8.61248C10.0224 8.46731 9.80621 8.26657 9.58271 8.01134C9.35853 7.7565 9.10639 7.39955 8.82496 6.94115C8.54386 6.48349 8.25205 5.94164 7.95027 5.31705L7.70056 4.86384C7.54434 4.57276 7.33081 4.14818 7.06008 3.59117C6.78935 3.03415 6.54961 2.49545 6.34166 1.97433C6.2582 1.75601 6.13331 1.58943 5.96678 1.47457L5.88885 1.42769C5.83677 1.38627 5.75331 1.3418 5.6388 1.2952C5.52394 1.24831 5.40464 1.21449 5.27942 1.19347L0.99963 1.22453C0.562313 1.22453 0.265715 1.32388 0.109498 1.5218L0.0470567 1.61529C0.0154977 1.6677 0 1.75117 0 1.86534C0 1.98019 0.0313899 2.12058 0.0938315 2.28682C0.718755 3.75539 1.39823 5.17154 2.13215 6.53523C2.86646 7.89964 3.50417 8.99846 4.04563 9.83139C4.58709 10.665 5.13893 11.4506 5.70146 12.1901C6.264 12.9295 6.63612 13.403 6.8182 13.611C7.00028 13.8197 7.14343 13.976 7.24763 14.0797L7.63806 14.455C7.88777 14.7047 8.25509 15.004 8.73935 15.3531C9.22356 15.7021 9.75955 16.0456 10.3483 16.3837C10.9364 16.7224 11.6213 16.9979 12.4021 17.2117C13.183 17.4256 13.9431 17.5114 14.6825 17.4693H16.4788C16.8434 17.4383 17.1192 17.3242 17.3065 17.1258L17.3689 17.0479C17.4103 16.9858 17.4496 16.8892 17.4861 16.7592C17.5224 16.6291 17.5411 16.4857 17.5411 16.3298C17.5303 15.8821 17.5645 15.4779 17.6425 15.1192C17.7204 14.7598 17.809 14.4894 17.9081 14.3067C18.007 14.1249 18.1187 13.9711 18.2439 13.8459C18.3688 13.7206 18.4571 13.6458 18.5095 13.6196C18.5616 13.5941 18.6034 13.5758 18.6344 13.5648C18.8841 13.4816 19.1783 13.5623 19.517 13.8069C19.8553 14.0521 20.173 14.3535 20.4699 14.7129C20.7665 15.0723 21.1231 15.4754 21.5398 15.9235C21.9561 16.3711 22.3206 16.7043 22.6331 16.9229L22.9456 17.1109C23.1538 17.2354 23.4242 17.3499 23.7578 17.4545C24.0909 17.5583 24.3827 17.5845 24.6324 17.5324L28.6311 17.4696C29.0267 17.4696 29.334 17.4048 29.5527 17.2744C29.7713 17.1451 29.9014 17.0009 29.9431 16.845C29.9845 16.6888 29.9873 16.5126 29.9511 16.3142C29.9146 16.1166 29.878 15.9786 29.8418 15.9007C29.8053 15.8228 29.7714 15.7572 29.74 15.7055C29.2193 14.7684 28.2249 13.6175 26.7566 12.2534L26.7253 12.2224L26.7098 12.2065L26.6943 12.1913H26.6786C26.0119 11.556 25.5904 11.129 25.4135 10.91C25.0907 10.4941 25.0176 10.0723 25.1949 9.64536C25.319 9.3216 25.7874 8.63942 26.5996 7.5978Z" fill="#FAFAFA"/>
</svg>
