<svg width="25" height="25" viewBox="0 0 25 25" fill="none" xmlns="http://www.w3.org/2000/svg">
<g clip-path="url(#clip0)">
<path d="M24.9755 7.35007C24.9169 6.02172 24.7021 5.1085 24.3944 4.31717C24.0769 3.4772 23.5886 2.72518 22.9487 2.10002C22.3236 1.46513 21.5666 0.971793 20.7363 0.659308C19.9404 0.351593 19.032 0.136784 17.7036 0.0782166C16.3654 0.0146894 15.9405 0 12.5463 0C9.1521 0 8.72725 0.0146894 7.39394 0.0732565C6.0656 0.131824 5.15237 0.346824 4.36124 0.654348C3.52108 0.971793 2.76906 1.46017 2.1439 2.10002C1.50901 2.72518 1.01587 3.48216 0.703192 4.3124C0.395477 5.1085 0.180668 6.01676 0.122101 7.34511C0.0585737 8.68338 0.0438843 9.10822 0.0438843 12.5024C0.0438843 15.8967 0.0585737 16.3215 0.117141 17.6548C0.175708 18.9832 0.390708 19.8964 0.698423 20.6877C1.01587 21.5277 1.50901 22.2797 2.1439 22.9049C2.76906 23.5398 3.52604 24.0331 4.35628 24.3456C5.15237 24.6533 6.06064 24.8681 7.38917 24.9267C8.72229 24.9854 9.14733 24.9999 12.5415 24.9999C15.9358 24.9999 16.3606 24.9854 17.6939 24.9267C19.0223 24.8681 19.9355 24.6533 20.7266 24.3456C22.4067 23.696 23.7351 22.3677 24.3847 20.6877C24.6922 19.8916 24.9072 18.9832 24.9658 17.6548C25.0243 16.3215 25.039 15.8967 25.039 12.5024C25.039 9.10822 25.034 8.68338 24.9755 7.35007ZM22.7242 17.5571C22.6704 18.7781 22.4653 19.4374 22.2944 19.8769C21.8743 20.966 21.0099 21.8304 19.9208 22.2505C19.4813 22.4214 18.8172 22.6265 17.601 22.6801C16.2824 22.7389 15.8869 22.7534 12.5513 22.7534C9.21562 22.7534 8.81519 22.7389 7.50135 22.6801C6.28041 22.6265 5.6211 22.4214 5.18156 22.2505C4.63958 22.0502 4.14624 21.7328 3.74581 21.3176C3.33069 20.9123 3.01325 20.4239 2.81294 19.8819C2.64201 19.4424 2.43693 18.7781 2.38332 17.5621C2.32456 16.2435 2.31006 15.8478 2.31006 12.5122C2.31006 9.17652 2.32456 8.77609 2.38332 7.46243C2.43693 6.24149 2.64201 5.58218 2.81294 5.14264C3.01325 4.60047 3.33069 4.10732 3.75077 3.7067C4.15597 3.29158 4.64435 2.97414 5.18652 2.77402C5.62606 2.60309 6.29033 2.39801 7.50631 2.34421C8.82492 2.28564 9.22058 2.27095 12.556 2.27095C15.8966 2.27095 16.2921 2.28564 17.606 2.34421C18.8269 2.39801 19.4862 2.60309 19.9257 2.77402C20.4677 2.97414 20.9611 3.29158 21.3615 3.7067C21.7766 4.11209 22.0941 4.60047 22.2944 5.14264C22.4653 5.58218 22.6704 6.24626 22.7242 7.46243C22.7827 8.78105 22.7974 9.17652 22.7974 12.5122C22.7974 15.8478 22.7827 16.2385 22.7242 17.5571Z" fill="#FAFAFA"/>
<path d="M12.5464 6.08032C9.00086 6.08032 6.12421 8.95678 6.12421 12.5025C6.12421 16.0482 9.00086 18.9246 12.5464 18.9246C16.092 18.9246 18.9685 16.0482 18.9685 12.5025C18.9685 8.95678 16.092 6.08032 12.5464 6.08032ZM12.5464 16.6684C10.2462 16.6684 8.38047 14.8028 8.38047 12.5025C8.38047 10.2021 10.2462 8.33658 12.5464 8.33658C14.8467 8.33658 16.7122 10.2021 16.7122 12.5025C16.7122 14.8028 14.8467 16.6684 12.5464 16.6684Z" fill="#FAFAFA"/>
<path d="M20.7219 5.82643C20.7219 6.65438 20.0506 7.32571 19.2224 7.32571C18.3945 7.32571 17.7231 6.65438 17.7231 5.82643C17.7231 4.99829 18.3945 4.32715 19.2224 4.32715C20.0506 4.32715 20.7219 4.99829 20.7219 5.82643Z" fill="#FAFAFA"/>
</g>
<defs>
<clipPath id="clip0">
<rect width="25" height="25" fill="white"/>
</clipPath>
</defs>
</svg>
