<svg width="214" height="99" viewBox="0 0 214 99" fill="none" xmlns="http://www.w3.org/2000/svg">
<path d="M67 40.375V46.55C67 46.6833 66.9583 46.7917 66.875 46.875C66.7917 46.9583 66.6833 47 66.55 47H63.05C62.9167 47 62.8083 46.9583 62.725 46.875C62.6417 46.7917 62.6 46.6833 62.6 46.55V30.425C62.6 30.3083 62.6417 30.2083 62.725 30.125C62.8083 30.025 62.9167 29.975 63.05 29.975H74.575C74.6917 29.975 74.7917 30.025 74.875 30.125C74.975 30.2083 75.025 30.3083 75.025 30.425V33.425C75.025 33.5417 74.975 33.65 74.875 33.75C74.7917 33.8333 74.6917 33.875 74.575 33.875H67V36.475H73.5C73.6333 36.475 73.7417 36.525 73.825 36.625C73.9083 36.7083 73.95 36.8083 73.95 36.925V39.925C73.95 40.0417 73.9083 40.15 73.825 40.25C73.7417 40.3333 73.6333 40.375 73.5 40.375H67ZM88.6531 38.075C88.6531 39.0917 88.4031 39.9417 87.9031 40.625C87.5198 41.1917 86.9948 41.65 86.3281 42L89.0281 46.225C89.1615 46.4083 89.2031 46.5833 89.1531 46.75C89.1031 46.9167 88.9615 47 88.7281 47H85.2781C84.8781 47 84.5948 46.85 84.4281 46.55L82.3031 42.775H81.0281V46.55C81.0281 46.6833 80.9781 46.7917 80.8781 46.875C80.7948 46.9583 80.6948 47 80.5781 47H77.4281C77.3115 47 77.2031 46.9583 77.1031 46.875C77.0198 46.7917 76.9781 46.6833 76.9781 46.55V33.85C76.9781 33.7167 77.0198 33.6083 77.1031 33.525C77.2031 33.4417 77.3115 33.4 77.4281 33.4H83.4531C84.5865 33.4 85.5781 33.625 86.4281 34.075C87.9115 34.875 88.6531 36.2083 88.6531 38.075ZM83.2281 36.9H81.0281V39.3H83.1781C83.6448 39.3 83.9865 39.1917 84.2031 38.975C84.4031 38.775 84.5031 38.4833 84.5031 38.1C84.5031 37.7333 84.4031 37.45 84.2031 37.25C83.9698 37.0167 83.6448 36.9 83.2281 36.9ZM91.3197 33.4H101.27C101.386 33.4 101.486 33.4417 101.57 33.525C101.67 33.6083 101.72 33.7167 101.72 33.85V36.55C101.72 36.6833 101.67 36.7917 101.57 36.875C101.486 36.9583 101.386 37 101.27 37H94.9197V38.35H100.245C100.378 38.35 100.486 38.3917 100.57 38.475C100.653 38.5583 100.695 38.6667 100.695 38.8V41.5C100.695 41.6333 100.653 41.7417 100.57 41.825C100.486 41.9083 100.378 41.95 100.245 41.95H94.9197V43.4H101.27C101.386 43.4 101.486 43.4417 101.57 43.525C101.67 43.6083 101.72 43.7167 101.72 43.85V46.55C101.72 46.6833 101.67 46.7917 101.57 46.875C101.486 46.9583 101.386 47 101.27 47H91.3197C91.2031 47 91.0947 46.9583 90.9947 46.875C90.9114 46.7917 90.8697 46.6833 90.8697 46.55V33.85C90.8697 33.7167 90.9114 33.6083 90.9947 33.525C91.0947 33.4417 91.2031 33.4 91.3197 33.4ZM108.281 44C108.748 44 109.115 43.9083 109.381 43.725C109.615 43.575 109.731 43.3417 109.731 43.025C109.731 42.725 109.581 42.4833 109.281 42.3C108.998 42.1167 108.573 41.9417 108.006 41.775C106.34 41.3083 105.148 40.7833 104.431 40.2C103.581 39.5167 103.156 38.4917 103.156 37.125C103.156 36.0083 103.606 35.0833 104.506 34.35C105.49 33.5833 106.84 33.2 108.556 33.2C110.24 33.2 111.756 33.6083 113.106 34.425C113.306 34.5417 113.356 34.725 113.256 34.975L112.156 37.25C112.04 37.5 111.865 37.55 111.631 37.4C110.448 36.75 109.34 36.425 108.306 36.425C107.906 36.425 107.59 36.4917 107.356 36.625C107.156 36.7417 107.056 36.9083 107.056 37.125C107.056 37.3917 107.181 37.6 107.431 37.75C107.681 37.9 108.065 38.05 108.581 38.2C108.665 38.2167 108.89 38.275 109.256 38.375C109.64 38.475 109.898 38.55 110.031 38.6C110.181 38.65 110.398 38.725 110.681 38.825C110.981 38.9083 111.24 39.0083 111.456 39.125C111.673 39.2417 111.89 39.3667 112.106 39.5C113.19 40.2333 113.731 41.325 113.731 42.775C113.731 44.0917 113.24 45.15 112.256 45.95C111.223 46.7833 109.881 47.2 108.231 47.2C106.415 47.2 104.773 46.7917 103.306 45.975C103.073 45.8417 103.023 45.65 103.156 45.4L104.231 43.125C104.348 42.875 104.531 42.825 104.781 42.975C105.898 43.6583 107.065 44 108.281 44ZM124.839 33.4H127.989C128.122 33.4 128.231 33.4417 128.314 33.525C128.397 33.6083 128.439 33.7167 128.439 33.85V46.55C128.439 46.6833 128.397 46.7917 128.314 46.875C128.231 46.9583 128.122 47 127.989 47H124.839C124.706 47 124.597 46.9583 124.514 46.875C124.431 46.7917 124.389 46.6833 124.389 46.55V41.95H120.164V46.55C120.164 46.6833 120.114 46.7917 120.014 46.875C119.931 46.9583 119.831 47 119.714 47H116.564C116.447 47 116.339 46.9583 116.239 46.875C116.156 46.7917 116.114 46.6833 116.114 46.55V33.85C116.114 33.7167 116.156 33.6083 116.239 33.525C116.339 33.4417 116.447 33.4 116.564 33.4H119.714C119.831 33.4 119.931 33.4417 120.014 33.525C120.114 33.6083 120.164 33.7167 120.164 33.85V38.3H124.389V33.85C124.389 33.7167 124.431 33.6083 124.514 33.525C124.597 33.4417 124.706 33.4 124.839 33.4ZM150.838 42.35C150.838 43.8333 150.263 44.9833 149.113 45.8C147.98 46.6 146.647 47 145.113 47H138.538C138.405 47 138.297 46.9583 138.213 46.875C138.13 46.7917 138.088 46.6833 138.088 46.55V30.425C138.088 30.3083 138.13 30.2083 138.213 30.125C138.297 30.025 138.405 29.975 138.538 29.975H143.513C145.397 29.975 146.847 30.3583 147.863 31.125C148.913 31.9417 149.438 33 149.438 34.3C149.438 36.0333 148.747 37.225 147.363 37.875V37.975C149.68 38.5583 150.838 40.0167 150.838 42.35ZM145.013 35.075C145.013 34.525 144.838 34.1167 144.488 33.85C144.222 33.6333 143.872 33.525 143.438 33.525H142.488V36.575H143.238C143.638 36.575 143.98 36.5083 144.263 36.375C144.763 36.125 145.013 35.6917 145.013 35.075ZM146.338 41.775C146.338 41.075 145.997 40.5917 145.313 40.325C144.947 40.175 144.43 40.1 143.763 40.1H142.488V43.425H144.113C144.697 43.425 145.138 43.3667 145.438 43.25C146.038 43 146.338 42.5083 146.338 41.775ZM164.996 38.075C164.996 39.0917 164.746 39.9417 164.246 40.625C163.863 41.1917 163.338 41.65 162.671 42L165.371 46.225C165.504 46.4083 165.546 46.5833 165.496 46.75C165.446 46.9167 165.304 47 165.071 47H161.621C161.221 47 160.938 46.85 160.771 46.55L158.646 42.775H157.371V46.55C157.371 46.6833 157.321 46.7917 157.221 46.875C157.138 46.9583 157.038 47 156.921 47H153.771C153.654 47 153.546 46.9583 153.446 46.875C153.363 46.7917 153.321 46.6833 153.321 46.55V33.85C153.321 33.7167 153.363 33.6083 153.446 33.525C153.546 33.4417 153.654 33.4 153.771 33.4H159.796C160.929 33.4 161.921 33.625 162.771 34.075C164.254 34.875 164.996 36.2083 164.996 38.075ZM159.571 36.9H157.371V39.3H159.521C159.988 39.3 160.329 39.1917 160.546 38.975C160.746 38.775 160.846 38.4833 160.846 38.1C160.846 37.7333 160.746 37.45 160.546 37.25C160.313 37.0167 159.988 36.9 159.571 36.9ZM170.488 44.625L169.913 46.5C169.813 46.8333 169.563 47 169.163 47H166.063C165.796 47 165.662 46.8833 165.662 46.65C165.662 46.6 165.679 46.5083 165.713 46.375L170.313 33.85C170.413 33.55 170.646 33.4 171.013 33.4H174.063C174.429 33.4 174.663 33.55 174.763 33.85L179.163 46.375C179.196 46.5083 179.213 46.6 179.213 46.65C179.213 46.8833 179.079 47 178.813 47H175.763C175.363 47 175.113 46.8333 175.013 46.5L174.413 44.625H170.488ZM173.463 41.5L172.488 38.4L171.488 41.5H173.463ZM180.713 33.85C180.713 33.7167 180.755 33.6083 180.838 33.525C180.938 33.4417 181.047 33.4 181.163 33.4H184.313C184.43 33.4 184.53 33.4417 184.613 33.525C184.713 33.6083 184.763 33.7167 184.763 33.85V46.55C184.763 46.6833 184.713 46.7917 184.613 46.875C184.53 46.9583 184.43 47 184.313 47H181.163C181.047 47 180.938 46.9583 180.838 46.875C180.755 46.7917 180.713 46.6833 180.713 46.55V33.85ZM199.793 47H197.643C197.36 47 197.093 46.85 196.843 46.55L191.668 40.275V46.55C191.668 46.6833 191.618 46.7917 191.518 46.875C191.435 46.9583 191.335 47 191.218 47H188.268C188.151 47 188.043 46.9583 187.943 46.875C187.86 46.7917 187.818 46.6833 187.818 46.55V33.85C187.818 33.7167 187.86 33.6083 187.943 33.525C188.043 33.4417 188.151 33.4 188.268 33.4H190.443C190.743 33.4 191.01 33.55 191.243 33.85L196.393 40.125V33.85C196.393 33.7167 196.435 33.6083 196.518 33.525C196.601 33.4417 196.71 33.4 196.843 33.4H199.793C199.926 33.4 200.035 33.4417 200.118 33.525C200.201 33.6083 200.243 33.7167 200.243 33.85V46.55C200.243 46.6833 200.201 46.7917 200.118 46.875C200.035 46.9583 199.926 47 199.793 47ZM207.646 44C208.113 44 208.48 43.9083 208.746 43.725C208.98 43.575 209.096 43.3417 209.096 43.025C209.096 42.725 208.946 42.4833 208.646 42.3C208.363 42.1167 207.938 41.9417 207.371 41.775C205.705 41.3083 204.513 40.7833 203.796 40.2C202.946 39.5167 202.521 38.4917 202.521 37.125C202.521 36.0083 202.971 35.0833 203.871 34.35C204.855 33.5833 206.205 33.2 207.921 33.2C209.605 33.2 211.121 33.6083 212.471 34.425C212.671 34.5417 212.721 34.725 212.621 34.975L211.521 37.25C211.405 37.5 211.23 37.55 210.996 37.4C209.813 36.75 208.705 36.425 207.671 36.425C207.271 36.425 206.955 36.4917 206.721 36.625C206.521 36.7417 206.421 36.9083 206.421 37.125C206.421 37.3917 206.546 37.6 206.796 37.75C207.046 37.9 207.43 38.05 207.946 38.2C208.03 38.2167 208.255 38.275 208.621 38.375C209.005 38.475 209.263 38.55 209.396 38.6C209.546 38.65 209.763 38.725 210.046 38.825C210.346 38.9083 210.605 39.0083 210.821 39.125C211.038 39.2417 211.255 39.3667 211.471 39.5C212.555 40.2333 213.096 41.325 213.096 42.775C213.096 44.0917 212.605 45.15 211.621 45.95C210.588 46.7833 209.246 47.2 207.596 47.2C205.78 47.2 204.138 46.7917 202.671 45.975C202.438 45.8417 202.388 45.65 202.521 45.4L203.596 43.125C203.713 42.875 203.896 42.825 204.146 42.975C205.263 43.6583 206.43 44 207.646 44Z" fill="#505050"/>
<path d="M71.06 61.605L73.31 55.005C73.34 54.895 73.415 54.84 73.535 54.84H74.405C74.535 54.84 74.575 54.91 74.525 55.05L71.75 62.88C71.71 62.99 71.63 63.045 71.51 63.045H70.595C70.485 63.045 70.41 62.99 70.37 62.88L68.3 56.88H68.27L66.2 62.88C66.16 62.99 66.08 63.045 65.96 63.045H65.045C64.925 63.045 64.845 62.99 64.805 62.88L62.06 55.05C62.01 54.91 62.05 54.84 62.18 54.84H63.05C63.17 54.84 63.245 54.895 63.275 55.005L65.495 61.605H65.525L67.73 55.005C67.76 54.895 67.835 54.84 67.955 54.84H68.63C68.75 54.84 68.825 54.895 68.855 55.005L71.03 61.605H71.06ZM75.813 54.84H81.468C81.558 54.84 81.603 54.89 81.603 54.99V55.665C81.603 55.765 81.558 55.815 81.468 55.815H76.758V58.425H80.853C80.953 58.425 81.003 58.475 81.003 58.575V59.25C81.003 59.35 80.953 59.4 80.853 59.4H76.758V62.025H81.468C81.558 62.025 81.603 62.075 81.603 62.175V62.865C81.603 62.955 81.558 63 81.468 63H75.813C75.713 63 75.663 62.955 75.663 62.865V54.99C75.663 54.89 75.713 54.84 75.813 54.84ZM86.6769 63H83.1519C83.0519 63 83.0019 62.955 83.0019 62.865V54.99C83.0019 54.89 83.0519 54.84 83.1519 54.84H86.0169C86.8069 54.84 87.4119 54.99 87.8319 55.29C88.4119 55.67 88.7019 56.215 88.7019 56.925C88.7019 57.795 88.3369 58.39 87.6069 58.71V58.77C88.1769 58.86 88.6119 59.085 88.9119 59.445C89.2219 59.805 89.3769 60.26 89.3769 60.81C89.3769 61.54 89.1169 62.09 88.5969 62.46C88.0769 62.82 87.4369 63 86.6769 63ZM87.6219 57.12C87.6219 56.62 87.4119 56.245 86.9919 55.995C86.7019 55.835 86.3569 55.755 85.9569 55.755H84.0969V58.425H85.8219C86.3619 58.425 86.7319 58.375 86.9319 58.275C87.3919 58.035 87.6219 57.65 87.6219 57.12ZM88.2669 60.66C88.2669 60.12 88.0269 59.725 87.5469 59.475C87.2669 59.325 86.7469 59.25 85.9869 59.25H84.0969V62.1H86.3319C86.7619 62.1 87.1169 62.04 87.3969 61.92C87.9769 61.7 88.2669 61.28 88.2669 60.66ZM97.2064 62.235C97.7764 62.235 98.2064 62.125 98.4964 61.905C98.8564 61.635 99.0364 61.255 99.0364 60.765C99.0364 60.165 98.5764 59.72 97.6564 59.43C97.5164 59.38 97.3114 59.315 97.0414 59.235C96.7814 59.155 96.5664 59.09 96.3964 59.04C96.2264 58.99 96.0314 58.92 95.8114 58.83C95.6014 58.73 95.4164 58.625 95.2564 58.515C94.7064 58.135 94.4314 57.585 94.4314 56.865C94.4314 56.195 94.6714 55.675 95.1514 55.305C95.6614 54.915 96.3914 54.72 97.3414 54.72C98.2014 54.72 98.9914 54.93 99.7114 55.35C99.7814 55.39 99.7964 55.45 99.7564 55.53L99.4714 56.13C99.4314 56.22 99.3664 56.235 99.2764 56.175C98.6264 55.805 97.9614 55.62 97.2814 55.62C96.6814 55.62 96.2314 55.725 95.9314 55.935C95.6314 56.145 95.4814 56.455 95.4814 56.865C95.4814 57.185 95.5814 57.435 95.7814 57.615C95.9914 57.795 96.2964 57.955 96.6964 58.095C96.8664 58.155 97.1314 58.235 97.4914 58.335C97.8614 58.435 98.1864 58.54 98.4664 58.65C98.7564 58.75 99.0114 58.87 99.2314 59.01C99.8214 59.43 100.116 59.995 100.116 60.705C100.116 61.485 99.8314 62.095 99.2614 62.535C98.7314 62.925 98.0464 63.12 97.2064 63.12C96.1564 63.12 95.2464 62.88 94.4764 62.4C94.4064 62.36 94.3914 62.295 94.4314 62.205L94.7164 61.605C94.7564 61.515 94.8214 61.5 94.9114 61.56C95.5814 62.01 96.3464 62.235 97.2064 62.235ZM101 54.84H107.45C107.55 54.84 107.6 54.89 107.6 54.99V55.68C107.6 55.77 107.55 55.815 107.45 55.815H104.78V62.865C104.78 62.955 104.73 63 104.63 63H103.82C103.72 63 103.67 62.955 103.67 62.865V55.815H101C100.91 55.815 100.865 55.77 100.865 55.68V54.99C100.865 54.89 100.91 54.84 101 54.84ZM115.848 54.99V59.76C115.848 60.86 115.513 61.705 114.843 62.295C114.213 62.845 113.358 63.12 112.278 63.12C111.188 63.12 110.328 62.845 109.698 62.295C109.028 61.705 108.693 60.86 108.693 59.76V54.99C108.693 54.89 108.738 54.84 108.828 54.84H109.638C109.738 54.84 109.788 54.89 109.788 54.99V59.715C109.788 60.505 110.028 61.12 110.508 61.56C110.938 61.93 111.528 62.115 112.278 62.115C113.028 62.115 113.613 61.93 114.033 61.56C114.513 61.12 114.753 60.505 114.753 59.715V54.99C114.753 54.89 114.798 54.84 114.888 54.84H115.713C115.803 54.84 115.848 54.89 115.848 54.99ZM120.804 63H118.059C117.959 63 117.909 62.955 117.909 62.865V54.99C117.909 54.89 117.959 54.84 118.059 54.84H120.984C122.474 54.84 123.609 55.27 124.389 56.13C125.019 56.84 125.334 57.775 125.334 58.935C125.334 60.575 124.719 61.735 123.489 62.415C122.799 62.805 121.904 63 120.804 63ZM119.004 55.8V62.055H120.744C121.584 62.055 122.264 61.91 122.784 61.62C123.744 61.12 124.224 60.225 124.224 58.935C124.224 58.025 123.984 57.305 123.504 56.775C122.934 56.125 122.049 55.8 120.849 55.8H119.004ZM127.094 54.99C127.094 54.89 127.144 54.84 127.244 54.84H128.054C128.144 54.84 128.189 54.89 128.189 54.99V62.865C128.189 62.955 128.144 63 128.054 63H127.244C127.144 63 127.094 62.955 127.094 62.865V54.99ZM131.816 56.835C131.326 57.415 131.081 58.11 131.081 58.92C131.081 59.73 131.326 60.425 131.816 61.005C132.416 61.735 133.216 62.1 134.216 62.1C135.216 62.1 136.016 61.735 136.616 61.005C137.106 60.425 137.351 59.73 137.351 58.92C137.351 58.11 137.106 57.415 136.616 56.835C136.016 56.105 135.216 55.74 134.216 55.74C133.216 55.74 132.416 56.105 131.816 56.835ZM130.826 61.56C130.236 60.81 129.941 59.93 129.941 58.92C129.941 57.91 130.236 57.03 130.826 56.28C131.646 55.24 132.776 54.72 134.216 54.72C135.656 54.72 136.786 55.24 137.606 56.28C138.196 57.03 138.491 57.91 138.491 58.92C138.491 59.93 138.196 60.81 137.606 61.56C136.806 62.6 135.676 63.12 134.216 63.12C132.756 63.12 131.626 62.6 130.826 61.56Z" fill="#505050"/>
<path d="M25.6923 24.704C24.9518 23.6938 23.6852 23.0107 22.4284 22.9145C20.9279 22.799 19.5542 23.2993 18.5312 24.3865C17.7615 25.2043 17.3815 26.2722 17.0308 27.3113C16.8359 27.8693 16.5923 28.4274 16.4949 29.0142C15.8908 29.0623 15.2965 29.2836 14.8386 29.6204C14.1176 30.1399 13.6792 30.9192 13.2894 31.6985C12.89 32.4971 12.7049 33.3918 12.8413 34.2866C12.8997 34.6522 13.0069 35.0082 13.1043 35.3642C13.1043 35.3834 13.1141 35.4026 13.1238 35.4315C12.9972 35.5854 12.8802 35.7298 12.7633 35.8837C12.0618 36.8169 11.5713 37.8645 12 38.9998C12.1851 39.4808 12.2175 40.0572 12.5 40.4998C12.7046 40.952 13.1688 41.6245 13.5 41.9998C13.7144 42.3076 14.1468 42.2048 14.4196 42.4741C14.2637 42.6954 14.1371 42.9263 14.0299 43.1572C13.6889 43.8788 13.7863 44.6485 14.1566 45.2643C14.1663 45.2835 14.1761 45.3028 14.1761 45.322C14.595 46.3418 15.5108 47.2077 16.5728 47.5637C17.0015 47.708 17.4302 47.7658 17.8492 47.7561C17.9174 48.1314 18.0538 48.4873 18.2389 48.8337C18.8624 49.9786 19.3308 50.8648 20.5 51.4998C20.7728 51.6537 21.3177 51.8643 21.6197 51.9509C21.5515 52.3358 21.5223 52.7206 21.5125 53.1247C21.5028 53.7405 21.461 54.384 21.5 54.9998C21.5097 55.1345 21.4903 55.3555 21.5 55.4998C21.461 55.798 21.5515 55.9725 21.4736 56.2708C21.3761 56.6075 21.3274 56.9787 21.4736 57.3154C21.2397 57.7869 21.23 58.2624 21.2008 58.7819C21.191 58.9936 21.4443 59.0705 21.5905 58.9743C21.6294 58.9839 21.6587 58.9839 21.6976 58.9743C21.7658 58.9551 21.834 58.9455 21.9023 58.9262C21.9412 58.9647 21.9899 58.9839 22.0581 58.9839C23.3442 59.0224 24.6693 59.1571 25.9456 58.9936C26.2184 58.9551 26.4815 58.8974 26.7445 58.8396C27.0758 58.7627 27.3388 58.7819 27.6701 58.8011C27.7383 58.8011 27.7968 58.8011 27.865 58.7915C27.9721 58.9358 28.2254 58.8685 28.2936 58.7049C28.3619 58.5221 28.4203 58.349 28.4593 58.1565C28.4788 58.0603 28.5779 58.0575 28.5 57.9998C28.7825 57.5957 28.7808 57.002 28.7516 56.4728C28.6834 55.3279 28.5275 54.1926 28.4788 53.0477C28.469 52.7302 28.4593 52.4224 28.4593 52.1049C28.4593 51.9798 28.4593 51.8547 28.4593 51.7296C28.4593 51.6431 28.4593 51.5372 28.4593 51.4891C28.469 50.9407 28.4885 50.3827 28.5275 49.8343C28.5957 48.6798 28.7321 47.5348 28.9075 46.3899C29.0926 45.1584 29.2582 43.8596 28.9464 42.6377C28.8977 42.4645 28.849 42.2914 28.7905 42.1374C28.8003 41.9354 28.81 41.7333 28.81 41.5313C28.8685 39.3665 28.9269 37.2018 28.9757 35.037C28.9951 34.4598 28.9367 33.9595 28.5665 33.4784C28.4983 33.3822 28.5974 33.0864 28.5 32.9998C28.5682 32.0377 28.4593 31.2848 28.5567 30.3227C28.6347 29.5049 28.6625 28.4231 28 27.9998C28 28.0383 28 27.9517 28 27.9998C27.8928 27.2205 27.2512 26.6186 26.7543 26.0317C26.6568 25.9163 26.5399 25.7142 26.4425 25.6084" fill="#C7C8CA"/>
<path opacity="0.2" d="M28.5167 34.2688C28.4485 33.73 28.2634 33.2394 28.2244 32.7006C28.2147 32.614 28.1855 32.5274 28.1367 32.4504C28.2147 32.2099 28.2731 31.9598 28.3024 31.6904C28.3608 31.1997 28.3413 30.6994 28.3316 30.2087C28.3219 29.2659 28.3024 28.3134 28.1465 27.3801C27.8639 25.7445 26.8896 24.4072 25.399 23.6279C22.3299 22.0404 17.8379 23.5749 17 27C16.7856 27.8851 16.9415 28.5957 17 29.5001C17.0487 30.3179 17.2636 31.4595 18.082 31.8443C18.2573 31.9213 18.4912 31.7866 18.423 31.5845C18.0138 30.2857 17.8774 29.0061 18.1209 27.6591C18.384 26.2352 19.1732 25.1192 20.508 24.4938C21.8428 23.8684 23.5186 23.8588 24.8241 24.5804C26.003 25.225 26.7337 26.3988 26.9578 27.6976C27.104 28.5828 27.0942 29.4968 27.104 30.3915C27.104 30.8245 27.0845 31.2574 27.1137 31.6904C27.1332 31.9213 27.1722 32.1329 27.2209 32.3446C26.6363 32.2869 25.9543 32.5467 25.5938 32.9507C25.0482 33.5472 24.6585 34.9423 25.5548 35.4137C25.74 35.5099 26.0517 35.4811 26.1492 35.2598C26.2466 35.0385 26.2953 34.875 26.3051 34.644C26.3051 34.4516 26.3538 34.2881 26.4415 34.1149C26.5194 33.9706 26.7067 33.7991 26.8724 33.7414C26.8724 33.7414 26.8724 33.7414 27.3724 33.7414C27.3724 33.7414 27.8724 33.7414 27.8724 34.2414C27.8529 34.7706 28.1757 36.7219 28.2244 37.2414C28.2634 37.6551 28.3121 38.0711 28.3316 38.4848C28.3121 38.6965 28.2926 39.0313 28.2731 39.2429C28.1757 40.0607 28.2147 40.0992 28.2731 39.2429C28.3608 38.1076 28.4485 36.9724 28.5265 35.8467C28.5654 35.3175 28.5849 34.798 28.5167 34.2688Z" fill="#505050"/>
<path opacity="0.2" d="M16.4461 29.351C16.3877 29.3029 16.3 29.274 16.2513 29.2259C16.1538 29.1105 16.0174 29.2067 15.9882 29.3221C15.8518 29.3702 15.7154 29.428 15.6082 29.4664C15.3159 29.5723 15.0237 29.6781 14.7411 29.8032C14.1858 30.0629 13.7181 30.4382 13.4161 30.977C12.8217 32.016 12.1008 33.7863 12.7438 34.9312C12.8217 35.0755 12.9971 35.1814 13.1627 35.2006C13.0848 35.2968 13.0166 35.3834 12.9484 35.4796C12.2372 36.461 12.1008 37.6925 12.2761 38.8566C12.432 39.9342 12.8899 41.0021 13.5914 41.8488C14.0688 42.4357 15.2965 43.773 16.1733 43.292C16.2708 43.2342 16.3487 43.1188 16.339 43.0033C16.3097 42.6185 16.0077 42.3587 15.7252 42.1182C15.3939 41.8199 15.0626 41.5409 14.7898 41.1849C14.2637 40.5018 13.874 39.7514 13.6889 38.9047C13.5135 38.0677 13.5427 37.1441 14.0006 36.4033C14.215 36.0569 14.5073 35.7779 14.8385 35.5374C15.2185 35.268 15.4426 35.0659 15.6375 34.6426C15.6959 34.5175 15.6764 34.3732 15.54 34.2866C14.9067 33.9018 14.2734 34.1615 13.7376 34.5945C13.7376 34.3924 13.6986 34.1808 13.6791 34.0076C13.6109 33.363 13.8155 32.7088 14.0104 32.1026C14.2052 31.4676 14.4293 30.9481 15.0237 30.5825C15.4523 30.3131 16.1149 30.188 16.4364 29.7936C16.5436 29.6492 16.5825 29.4664 16.4461 29.351Z" fill="#505050"/>
<path opacity="0.2" d="M17.8491 39.7321C17.5179 39.4339 17.0892 39.4243 16.7384 39.1645C16.4754 38.9721 16.261 38.6834 16.222 38.3563C16.1733 38.0196 16.2415 37.6732 16.4072 37.375C16.5923 37.0479 16.8846 36.7977 17.021 36.461C17.1184 36.2397 16.8359 35.9703 16.6118 36.0569C16.0369 36.2685 15.6082 36.4032 15.238 36.9324C14.8678 37.4519 14.7021 38.0869 14.7996 38.7219C14.897 39.3665 15.238 39.963 15.7544 40.3768C16.2805 40.8001 17.0697 41.1753 17.7225 40.8001C18.0732 40.5788 18.1804 40.0208 17.8491 39.7321Z" fill="#505050"/>
<path opacity="0.2" d="M25.1077 37.221C25.0882 37.0286 24.8251 36.9324 24.7277 37.1152C24.1626 38.1447 23.5098 39.3377 22.2822 39.6263C21.7951 39.7418 21.0156 39.8187 20.5479 39.5686C20.2849 39.4339 20.1193 39.1356 19.9439 38.9144C19.8465 38.7893 19.7393 38.6546 19.6321 38.5391C19.5347 38.4429 19.3593 38.366 19.2911 38.2505C19.2619 38.2024 19.2034 38.1928 19.1644 38.212C18.2681 38.7027 18.8916 39.8476 19.408 40.4152C20.0803 41.1465 21.2397 41.2523 22.175 41.1272C23.0422 41.0118 23.9483 40.6558 24.5231 39.9727C25.2051 39.1741 25.1856 38.2216 25.1077 37.221Z" fill="#505050"/>
<path opacity="0.2" d="M23.1785 32.6318C22.7693 31.891 21.756 31.9198 21.1228 32.3335C20.5187 32.728 20.0413 33.4015 19.8464 34.0942C19.6516 34.8061 19.8367 35.5085 20.2849 36.0858C20.4797 36.3359 20.7038 36.5476 20.9279 36.7689C21.152 36.9901 21.3468 37.2403 21.6586 37.3557C21.8048 37.4135 21.9704 37.298 22.0094 37.1633C22.2432 36.2974 21.0156 35.7298 21.0058 34.8735C20.9961 34.4309 21.2202 33.9884 21.5222 33.6709C21.6586 33.5265 21.8535 33.3149 22.0678 33.3341C22.3991 33.363 22.477 33.565 22.8473 33.44C23.1883 33.3149 23.3539 32.9589 23.1785 32.6318Z" fill="#505050"/>
<path opacity="0.2" d="M25.624 47.6407C25.1953 47.6888 24.8154 47.9005 24.3867 47.9582C23.9872 48.0063 23.5488 47.9678 23.1785 47.8139C22.8375 47.6792 22.516 47.429 22.3893 47.0827C22.3017 46.8517 22.3309 46.6016 22.3309 46.3611C22.3211 46.0821 22.1945 45.9377 22.1458 45.6972C22.1165 45.5721 21.9509 45.4759 21.8243 45.524C21.1422 45.7934 20.9864 46.5246 21.0643 47.1981C21.1422 47.9101 21.6196 48.4873 22.2042 48.8818C22.7596 49.257 23.4416 49.4302 24.1139 49.4302C24.7569 49.4206 25.663 49.2955 26.1209 48.8048C26.4814 48.4104 26.2573 47.583 25.624 47.6407Z" fill="#505050"/>
<path opacity="0.2" d="M24.0846 50.45C22.516 50.8637 20.5577 50.527 19.8465 48.8914C19.5152 48.141 19.5444 47.1596 19.6419 46.3611C19.749 45.5337 19.9926 44.6581 20.2849 43.8788C20.3141 43.8019 20.2654 43.7056 20.1972 43.6768C20.0608 43.6094 19.9829 43.5613 19.8367 43.6094C19.8172 43.6191 19.7977 43.6479 19.8075 43.6672C19.8367 43.696 19.8562 43.7345 19.8757 43.7634C19.0183 44.3695 18.5799 45.245 18.3753 46.2745C18.1414 47.4001 18.1219 48.5932 18.6286 49.6611C19.6419 51.8259 22.3017 52.5378 24.4939 51.8836C25.4097 51.6046 25.02 50.2095 24.0846 50.45Z" fill="#505050"/>
<path opacity="0.2" d="M27.7285 57.3003C26.7737 57.4734 25.8092 57.2522 24.8641 57.1078C24.1041 56.9924 23.3539 56.9058 22.6037 56.9731C22.4868 56.3382 22.516 55.6935 22.5453 55.0393C22.594 54.2023 22.8083 53.0766 22.3991 52.3069C22.214 51.9702 21.7658 52.0375 21.571 52.3069C21.2884 52.6918 21.2689 53.1921 21.2202 53.6539C21.1618 54.1734 21.113 54.6833 21.0741 55.2029C21.0059 56.1457 21.0059 57.0982 21.3177 58.0026C21.4541 58.3874 21.5811 59.096 22 58.9998C22.9451 58.7689 24.0549 58.8459 25 58.9998C26.0133 59.1634 26.977 59.1922 28 58.9998C28.9646 58.8363 28.6834 57.1271 27.7285 57.3003Z" fill="#505050"/>
<path d="M35.1527 13.6879C34.5876 14.4383 34.1394 15.3331 33.6718 16.1509C33.4477 16.5357 32.5221 17.9211 33.2333 18.2579C34.0517 18.662 34.6656 17.4786 35.026 16.9302C35.5424 16.1412 36.1465 15.3427 36.5557 14.5056C37.0234 13.5532 35.7763 12.8701 35.1527 13.6879Z" fill="#505050"/>
<path d="M46.552 18.7581C45.5874 18.8544 44.6034 19.5952 43.8434 20.1628C43.444 20.4611 43.0543 20.769 42.6938 21.1153C42.3528 21.4328 41.9046 21.8561 41.8364 22.3372C41.7779 22.7413 42.0605 23.0684 42.4892 22.9818C42.9276 22.8952 43.2881 22.5296 43.6193 22.2506C43.9604 21.962 44.3208 21.6926 44.6911 21.4328C45.0418 21.1923 45.4121 20.9614 45.792 20.7497C46.2207 20.5092 46.7176 20.3456 47.0781 20.0089C47.5068 19.5952 47.195 18.6908 46.552 18.7581Z" fill="#505050"/>
<path d="M22.8765 17.4882C22.6719 16.5934 22.0776 15.7083 21.5709 14.9386C21.0546 14.1593 20.4505 13.303 19.6126 12.8508C18.9891 12.5141 18.3363 13.2164 18.6675 13.7744C18.9988 14.5249 19.5347 15.1695 19.9731 15.8622C20.4408 16.603 20.7525 17.4401 21.2397 18.1713C21.795 18.9987 23.1103 18.4888 22.8765 17.4882Z" fill="#505050"/>
<path d="M14.6339 21.048C14.1663 20.8075 13.6402 20.6824 13.1335 20.5284C12.6464 20.3745 12.1592 20.2206 11.6623 20.0859C10.9901 19.9031 9.61631 19.4894 9.11942 20.2013C9.09019 20.2494 9.0707 20.3072 9.08045 20.3649C9.08045 20.4996 9.11942 20.6247 9.18762 20.7305C9.18762 20.7497 9.2071 20.769 9.21685 20.7786C9.34351 20.9614 9.54811 21.1153 9.704 21.25C10.084 21.5579 10.6004 21.7215 11.0583 21.885C11.5064 22.0582 11.9644 22.1929 12.4223 22.3468C12.8997 22.5008 13.3868 22.7221 13.8837 22.799C14.3611 22.8664 14.8288 22.7221 15.0237 22.2506C15.199 21.8177 15.0724 21.2693 14.6339 21.048Z" fill="#505050"/>
<path d="M9.82092 29.5915C8.98302 29.3991 8.05744 29.428 7.19031 29.3702C6.51805 29.3221 5.3294 29.1105 4.83251 29.6685C4.70585 29.8032 4.65713 30.0245 4.76431 30.1976C5.18326 30.8519 6.3037 30.823 7.00519 30.8904C7.85283 30.9673 8.76868 31.1405 9.61632 31.0924C10.4445 31.0251 10.7173 29.7839 9.82092 29.5915Z" fill="#505050"/>
<path d="M52.3198 25.0503C51.784 24.7617 51.2384 24.8868 50.6635 24.9926C50.1472 25.0888 49.6308 25.2139 49.1242 25.3678C48.637 25.5122 48.1596 25.7142 47.7309 25.9644C47.5068 26.099 47.3412 26.2722 47.195 26.4743C47.0976 26.609 47.0391 26.8399 46.9417 26.9457C46.8053 27.0804 46.9515 27.2632 47.1171 27.244C47.1268 27.244 47.1463 27.244 47.1561 27.2343C47.4191 27.3979 47.8478 27.3883 48.1304 27.3498C48.6175 27.2824 49.1144 27.1093 49.5821 26.9746C50.0302 26.8495 50.4882 26.7437 50.9558 26.6667C51.5209 26.5705 52.0081 26.5705 52.4757 26.1953C52.846 25.9066 52.7193 25.262 52.3198 25.0503Z" fill="#505050"/>
<path d="M54.1028 35.5373C53.3136 35.0563 52.0957 35.037 51.1994 35.0948C50.5563 35.1333 49.1046 35.3449 49.2605 36.2782C49.3774 36.9901 50.683 36.9709 51.1994 37.0094C51.5599 37.0382 51.9106 37.0863 52.2711 37.1441C52.7095 37.221 53.1577 37.375 53.6059 37.3654C54.5997 37.3461 54.9504 36.0473 54.1028 35.5373Z" fill="#505050"/>
<path d="M9.47017 39.9149C9.21685 38.6257 7.53132 39.0972 6.68368 39.3377C5.68015 39.6263 4.44279 39.9342 3.79975 40.7905C3.68284 40.9444 3.70232 41.2234 3.79975 41.3773C3.8095 41.3966 3.89718 41.5409 4.00436 41.589C4.10179 41.6275 4.18947 41.666 4.30639 41.666C4.32587 41.666 4.50125 41.6371 4.55971 41.6179C4.63765 41.6179 4.74482 41.6179 4.76431 41.6179C5.2612 41.5794 5.78732 41.387 6.27447 41.2523C6.74214 41.1272 7.2098 41.0021 7.68721 40.8963C8.06718 40.8097 8.33999 40.9059 8.71996 40.8867C9.24608 40.8578 9.5676 40.4249 9.47017 39.9149Z" fill="#505050"/>
<path d="M12.1885 47.2847C11.3213 47.3328 10.5127 48.141 9.85989 48.6509C9.20711 49.1608 8.39844 49.7477 8.00872 50.4789C7.7554 50.9407 8.18409 51.6815 8.76867 51.4603C9.52862 51.162 10.2009 50.5559 10.8537 50.0652C11.1849 49.8247 11.5162 49.5842 11.8475 49.3533C12.2079 49.1031 12.6659 48.8433 12.8607 48.4296C13.0848 47.939 12.8218 47.2462 12.1885 47.2847Z" fill="#505050"/>
<path d="M14.5463 52.9323C13.952 53.5577 13.6889 54.4813 13.3576 55.2606C13.0166 56.0592 12.8607 56.7711 12.9582 57.637C12.9582 57.6755 13.0069 57.714 13.0459 57.6851C13.7181 57.2233 14.1955 56.6941 14.595 55.9822C15.0042 55.251 15.6375 54.5005 15.8324 53.6827C16.0077 52.9708 15.0919 52.355 14.5463 52.9323Z" fill="#505050"/>
<path d="M53.8495 43.3497C53.4695 42.4164 52.3393 42.2336 51.4625 41.9161C51.0532 41.7718 50.644 41.6083 50.2056 41.5794C49.8159 41.5505 49.2508 41.7622 49.28 42.2432C49.3287 43.0803 50.2835 43.494 50.9558 43.8019C51.706 44.1482 52.6803 44.7159 53.4793 44.2348C53.7618 44.0712 53.9761 43.6768 53.8495 43.3497Z" fill="#505050"/>
<path d="M51.9886 49.1993C51.2773 48.8625 50.4979 48.6509 49.7574 48.3815C49.1534 48.1602 48.3155 47.7176 47.6724 47.9004C47.4094 47.9774 47.2827 48.2372 47.3314 48.4873C47.4776 49.1704 48.3934 49.6996 48.9488 50.0363C49.621 50.4404 50.42 50.8637 51.1897 51.0369C51.6865 51.1427 52.2029 50.9311 52.3978 50.45C52.5829 50.0267 52.4562 49.4206 51.9886 49.1993Z" fill="#505050"/>
<path d="M47.8088 55.7513C47.5945 54.9912 46.7858 54.4235 46.2305 53.904C45.9577 53.6442 45.6751 53.3941 45.3828 53.1536C45.0321 52.8649 44.7398 52.7495 44.3209 52.5763C43.8824 52.3935 43.3855 52.9323 43.5414 53.346C43.6876 53.7212 43.7947 54.0195 44.048 54.337C44.3014 54.6544 44.5644 54.9623 44.8372 55.2702C45.3536 55.8571 45.8895 56.646 46.6592 56.8769C47.3509 57.0982 47.994 56.4151 47.8088 55.7513Z" fill="#505050"/>
<path d="M46.0356 38.0869C46.0356 44.1482 42.4307 49.3821 37.2182 51.8066V58.9166H30.6904V22.9337C39.1668 22.9337 46.0356 29.7166 46.0356 38.0869Z" fill="#FFD335" stroke="#505050" stroke-miterlimit="10" stroke-linecap="round" stroke-linejoin="round"/>
<path d="M35.2988 60.4848V65.0837C35.2988 66.3152 34.2856 67.3254 33.0287 67.3254H25.702C24.4549 67.3254 23.4319 66.3249 23.4319 65.0837V60.4848H35.2988Z" stroke="#505050" stroke-miterlimit="10"/>
<path d="M17.9368 31.6793C16.3682 29.4761 16.7579 26.0509 19.0768 24.4731C21.4151 22.8856 24.8544 23.3955 26.4522 25.7623C27.2998 27.0227 27.7578 28.6294 28.0501 30.1014C28.3521 31.6119 28.2644 33.084 28.2644 34.6041C28.2644 38.4237 28.2644 42.2432 28.2644 46.0628C28.2644 50.3923 28.2644 54.7218 28.2644 59.0513C28.43 58.8877 28.5859 58.7338 28.7516 58.5702C26.1989 58.5221 23.656 58.4837 21.1033 58.4355C21.2689 58.5991 21.4248 58.753 21.5905 58.9166C21.6002 56.6653 21.6099 54.4139 21.6197 52.1722C21.6197 51.5565 20.6454 51.5565 20.6454 52.1722C20.6356 54.4235 20.6259 56.6749 20.6162 58.9166C20.6162 59.1764 20.8402 59.3977 21.1033 59.3977C23.656 59.4458 26.1989 59.4842 28.7516 59.5323C29.0146 59.5323 29.2387 59.3111 29.2387 59.0513C29.2387 54.8469 29.2387 50.6521 29.2387 46.4477C29.2387 42.2817 29.1413 38.1062 29.2387 33.9402C29.2777 32.3143 29.2387 30.746 28.8295 29.1489C28.4495 27.6384 27.9331 26.0317 26.9296 24.7906C25.0102 22.4142 21.3371 21.9139 18.7552 23.5302C15.8908 25.3197 15.1698 29.4568 17.0989 32.17C17.4497 32.6703 18.2973 32.1892 17.9368 31.6793Z" fill="#505050"/>
<path d="M16.3293 28.1002C13.153 29.2163 11.3214 32.5933 12.1885 35.826C12.3444 36.4225 13.2894 36.1723 13.1238 35.5662C12.4028 32.8627 13.913 29.9667 16.5826 29.0239C17.1769 28.8218 16.9236 27.8886 16.3293 28.1002Z" fill="#505050"/>
<path d="M14.7314 33.6901C13.5525 33.5939 12.5879 34.8061 12.0813 35.7298C11.5162 36.7592 11.2726 37.9522 11.4285 39.1164C11.7208 41.3677 13.494 43.2438 15.7154 43.773C16.3292 43.9173 16.5826 42.9937 15.9785 42.8494C14.2248 42.4357 12.7925 41.0406 12.4418 39.2799C12.2664 38.3948 12.3833 37.4519 12.7341 36.6245C13.0361 35.9029 13.8058 34.5945 14.7314 34.6714C15.3549 34.7003 15.3549 33.7382 14.7314 33.6901Z" fill="#505050"/>
<path d="M13.8058 42.4261C12.9874 43.494 13.114 45.0334 13.8448 46.1206C14.6437 47.3232 16.0077 47.9678 17.362 48.3815C17.9661 48.5643 18.2194 47.6407 17.6251 47.4579C16.5728 47.1404 15.4621 46.669 14.7801 45.7646C14.1468 44.9372 14.0007 43.773 14.6534 42.9167C15.0237 42.4164 14.176 41.945 13.8058 42.4261Z" fill="#505050"/>
<path d="M19.2814 43.3978C17.4887 45.245 16.9138 48.0544 18.1609 50.3442C19.4665 52.7591 22.2432 53.1824 24.7082 52.4993C25.3123 52.3358 25.059 51.4025 24.4452 51.5757C22.3894 52.153 20.0998 51.8932 18.9988 49.8632C17.9661 47.9486 18.4825 45.601 19.9634 44.0809C20.4018 43.6287 19.7101 42.9456 19.2814 43.3978Z" fill="#505050"/>
<path d="M21.0936 45.5337C20.2849 46.8518 20.5772 48.6798 21.8243 49.6323C23.0714 50.5847 24.942 50.3923 26.0235 49.2955C26.462 48.8529 25.7702 48.1698 25.3318 48.6124C24.5816 49.3725 23.276 49.536 22.4089 48.8722C21.5417 48.2083 21.3664 46.9191 21.9217 46.0147C22.2627 45.4856 21.4248 44.9949 21.0936 45.5337Z" fill="#505050"/>
<path d="M23.8216 42.8398C24.0652 45.0237 26.5009 46.2745 28.4008 45.0237C28.9172 44.687 28.43 43.85 27.9136 44.1963C26.686 45.0045 24.9713 44.3599 24.7959 42.8398C24.7277 42.224 23.7534 42.224 23.8216 42.8398Z" fill="#505050"/>
<path d="M24.3867 37.856C24.3185 39.3281 23.3832 40.7327 21.8438 41.0021C20.4213 41.2523 19.0086 40.2517 19.0183 38.7797C19.0183 38.1639 18.044 38.1639 18.044 38.7797C18.0343 40.7616 19.8757 42.2144 21.8243 41.9642C23.9288 41.7045 25.2636 39.8476 25.361 37.8464C25.3902 37.2403 24.4159 37.2403 24.3867 37.856Z" fill="#505050"/>
<path d="M21.6879 36.9901C20.7818 36.2974 20.0024 35.2968 20.1193 34.0942C20.2167 33.0359 21.2787 31.9968 22.3991 32.5067C22.9642 32.7665 23.4611 31.9294 22.8863 31.6793C21.3956 31.0058 19.7296 31.8717 19.2619 33.3822C18.7553 35.037 19.6906 36.6726 20.9961 37.6636C21.4833 38.0484 22.175 37.3653 21.6879 36.9901Z" fill="#505050"/>
<path d="M20.0608 29.5915C19.8757 28.1291 20.9474 26.7533 22.516 26.8687C23.997 26.9842 24.8544 28.4466 24.4841 29.7936C24.3185 30.3901 25.2538 30.6498 25.4195 30.0533C25.9553 28.1387 24.6985 26.1375 22.6622 25.9259C20.5577 25.7046 18.8332 27.5518 19.0865 29.5915C19.1547 30.1976 20.1388 30.2073 20.0608 29.5915Z" fill="#505050"/>
<path d="M25.7897 35.0178C25.3025 34.2289 25.6435 33.1706 26.5984 32.9493C27.5629 32.7376 28.3436 33.5458 28.2656 34.4598C28.2169 35.0755 29.1608 35.0755 29.2095 34.4598C29.3361 32.9012 27.8747 31.6504 26.3353 32.016C24.7764 32.3816 24.1236 34.1808 24.9421 35.4989C25.2831 36.028 26.121 35.547 25.7897 35.0178Z" fill="#505050"/>
<path d="M16.1539 36.0184C15.0334 36.586 14.3806 37.8657 14.634 39.0875C14.8873 40.3287 16.0175 41.1946 17.2548 41.31C17.8784 41.3677 17.8784 40.4056 17.2548 40.3479C16.4462 40.2709 15.7057 39.6263 15.5693 38.8278C15.4329 38.01 15.92 37.2114 16.641 36.8458C17.1964 36.5668 16.7092 35.7394 16.1539 36.0184Z" fill="#505050"/>
<path d="M23.7144 65.0837H35.0065" stroke="#505050" stroke-miterlimit="10" stroke-linecap="round" stroke-linejoin="round"/>
<path d="M23.6754 62.6496H35.0455" stroke="#505050" stroke-miterlimit="10" stroke-linecap="round" stroke-linejoin="round"/>
<path d="M31.8401 67.5467C31.8401 68.8937 30.7294 69.9905 29.3653 69.9905C28.0013 69.9905 26.8906 68.8937 26.8906 67.5467C26.8906 67.4698 26.8906 67.3928 26.9004 67.3158H31.8206C31.8303 67.3928 31.8401 67.4698 31.8401 67.5467Z" fill="#FFD335" stroke="#505050" stroke-miterlimit="10"/>
<path d="M30.6904 42.6858C32.7949 42.9264 34.4122 42.6281 35.4157 42.3491C36.6336 42.0124 37.7053 41.6949 37.9489 40.8578C38.1925 40.0304 37.5884 38.8759 36.8772 38.7412C35.4839 38.4718 33.7594 42.1086 33.5256 42.6281C33.282 43.5902 33.0677 44.61 32.8826 45.6684C32.0447 50.7483 32.3954 55.2895 33.0774 58.907" stroke="#505050" stroke-miterlimit="10"/>
<path d="M32.7656 25.8489C34.2466 26.2145 35.7275 26.6378 37.0428 27.4172C38.2315 28.1195 39.2155 29.1008 40.0144 30.2073C41.7487 32.6029 43.0737 35.5374 43.2101 38.5007C43.2491 39.4243 44.7106 39.4339 44.6716 38.5007C44.5352 35.2391 43.1225 31.9679 41.1836 29.351C40.2678 28.1099 39.1863 27.0131 37.8515 26.2049C36.4095 25.339 34.7824 24.8483 33.1554 24.4442C32.2395 24.2326 31.8498 25.618 32.7656 25.8489Z" fill="white"/>
</svg>
