<svg width="110" height="18" viewBox="0 0 110 18" fill="none" xmlns="http://www.w3.org/2000/svg">
<path d="M15.336 8.36C16.056 8.68 16.608 9.12 16.992 9.68C17.392 10.224 17.592 10.88 17.592 11.648C17.592 13.424 16.856 14.76 15.384 15.656C13.928 16.552 12.048 17 9.744 17H0.048L3.408 0.199999H12.312C14.28 0.199999 15.776 0.551999 16.8 1.256C17.824 1.944 18.336 2.928 18.336 4.208C18.336 5.152 18.072 5.984 17.544 6.704C17.016 7.408 16.28 7.96 15.336 8.36ZM8.184 4.16L7.68 6.656H10.56C11.808 6.656 12.432 6.168 12.432 5.192C12.432 4.856 12.304 4.6 12.048 4.424C11.792 4.248 11.424 4.16 10.944 4.16H8.184ZM10.056 13.04C10.632 13.04 11.096 12.912 11.448 12.656C11.8 12.384 11.976 12 11.976 11.504C11.976 11.152 11.84 10.88 11.568 10.688C11.312 10.496 10.984 10.4 10.584 10.4H6.936L6.408 13.04H10.056ZM25.5705 0.199999H31.2345L28.7625 12.608H36.3465L35.4585 17H22.2105L25.5705 0.199999ZM50.1195 10.904L48.9195 17H43.2555L44.4795 10.832L40.2795 0.199999H45.9675L48.2475 6.008L52.9275 0.199999H58.6155L50.1195 10.904ZM70.7364 14.072H64.3284L62.6484 17H56.6724L67.3764 0.199999H72.9444L76.9284 17H71.2884L70.7364 14.072ZM69.9444 9.992L69.1284 5.696L66.6564 9.992H69.9444ZM86.7086 4.592H81.7886L82.6766 0.199999H98.1806L97.2926 4.592H92.3726L89.9006 17H84.2366L86.7086 4.592ZM102.881 0.199999H109.361L106.217 10.568H101.896L102.881 0.199999ZM103.121 17.24C102.241 17.24 101.521 16.984 100.961 16.472C100.4 15.96 100.12 15.336 100.12 14.6C100.12 13.704 100.433 12.968 101.057 12.392C101.697 11.816 102.497 11.528 103.457 11.528C104.337 11.528 105.057 11.776 105.617 12.272C106.177 12.768 106.457 13.384 106.457 14.12C106.457 15 106.137 15.744 105.497 16.352C104.857 16.944 104.065 17.24 103.121 17.24Z" fill="black"/>
</svg>
