<svg width="148" height="18" viewBox="0 0 148 18" fill="none" xmlns="http://www.w3.org/2000/svg">
<path d="M20.92 0.199999L17.56 17H11.992L14.464 4.592H10.648L9.904 7.88C9.36 10.312 8.768 12.2 8.128 13.544C7.488 14.888 6.712 15.856 5.8 16.448C4.904 17.024 3.752 17.312 2.344 17.312C1.464 17.312 0.688 17.208 0.016 17L1.216 12.464C1.408 12.512 1.608 12.536 1.816 12.536C2.328 12.536 2.768 12.352 3.136 11.984C3.52 11.616 3.872 11.016 4.192 10.184C4.528 9.352 4.864 8.208 5.2 6.752L6.736 0.199999H20.92ZM31.4954 17.24C30.0554 17.24 28.7994 16.992 27.7274 16.496C26.6554 15.984 25.8234 15.272 25.2314 14.36C24.6554 13.448 24.3674 12.384 24.3674 11.168C24.3674 9.744 24.7194 8.464 25.4234 7.328C26.1274 6.176 27.0954 5.272 28.3274 4.616C29.5754 3.96 30.9834 3.632 32.5514 3.632C33.9914 3.632 35.2474 3.888 36.3194 4.4C37.3914 4.896 38.2154 5.6 38.7914 6.512C39.3834 7.424 39.6794 8.488 39.6794 9.704C39.6794 11.128 39.3274 12.416 38.6234 13.568C37.9194 14.704 36.9434 15.6 35.6954 16.256C34.4634 16.912 33.0634 17.24 31.4954 17.24ZM31.8074 12.968C32.5114 12.968 33.0794 12.696 33.5114 12.152C33.9594 11.608 34.1834 10.88 34.1834 9.968C34.1834 9.344 34.0074 8.848 33.6554 8.48C33.3194 8.096 32.8474 7.904 32.2394 7.904C31.5354 7.904 30.9594 8.176 30.5114 8.72C30.0794 9.264 29.8634 9.992 29.8634 10.904C29.8634 11.528 30.0314 12.032 30.3674 12.416C30.7194 12.784 31.1994 12.968 31.8074 12.968ZM56.8844 8.096H50.7644L49.0364 17H43.6364L46.2764 3.872H57.7484L56.8844 8.096ZM67.3829 17.24C65.9429 17.24 64.6869 16.992 63.6149 16.496C62.5429 15.984 61.7109 15.272 61.1189 14.36C60.5429 13.448 60.2549 12.384 60.2549 11.168C60.2549 9.744 60.6069 8.464 61.3109 7.328C62.0149 6.176 62.9829 5.272 64.2149 4.616C65.4629 3.96 66.8709 3.632 68.4389 3.632C69.8789 3.632 71.1349 3.888 72.2069 4.4C73.2789 4.896 74.1029 5.6 74.6789 6.512C75.2709 7.424 75.5669 8.488 75.5669 9.704C75.5669 11.128 75.2149 12.416 74.5109 13.568C73.8069 14.704 72.8309 15.6 71.5829 16.256C70.3509 16.912 68.9509 17.24 67.3829 17.24ZM67.6949 12.968C68.3989 12.968 68.9669 12.696 69.3989 12.152C69.8469 11.608 70.0709 10.88 70.0709 9.968C70.0709 9.344 69.8949 8.848 69.5429 8.48C69.2069 8.096 68.7349 7.904 68.1269 7.904C67.4229 7.904 66.8469 8.176 66.3989 8.72C65.9669 9.264 65.7509 9.992 65.7509 10.904C65.7509 11.528 65.9189 12.032 66.2549 12.416C66.6069 12.784 67.0869 12.968 67.6949 12.968ZM93.2631 8.096H89.2071L87.4791 17H82.0791L83.8071 8.096H79.8471L80.7111 3.872H94.1271L93.2631 8.096ZM99.2873 3.872H104.687L103.415 9.8L109.151 3.872H114.215L111.575 17H106.175L107.447 11.048L101.735 17H96.6473L99.2873 3.872ZM134.436 3.872L131.796 17H126.396L128.124 8.096H124.836L123.108 17H117.708L120.348 3.872H134.436ZM140.565 0.199999H147.045L143.901 10.568H139.581L140.565 0.199999ZM140.805 17.24C139.925 17.24 139.205 16.984 138.645 16.472C138.085 15.96 137.805 15.336 137.805 14.6C137.805 13.704 138.117 12.968 138.741 12.392C139.381 11.816 140.181 11.528 141.141 11.528C142.021 11.528 142.741 11.776 143.301 12.272C143.861 12.768 144.141 13.384 144.141 14.12C144.141 15 143.821 15.744 143.181 16.352C142.541 16.944 141.749 17.24 140.805 17.24Z" fill="black"/>
</svg>
