<svg width="21" height="19" viewBox="0 0 21 19" fill="none" xmlns="http://www.w3.org/2000/svg">
<path d="M0.09375 18.3125V12.5C0.09375 10.4375 0.614583 8.28125 1.65625 6.03125C2.71875 3.76042 4.09375 1.88542 5.78125 0.40625L9.84375 2.78125C8.94792 4.28125 8.27083 5.8125 7.8125 7.375C7.35417 8.91667 7.125 10.6146 7.125 12.4688V18.3125H0.09375ZM10.4688 18.3125V12.5C10.4688 10.4375 10.9896 8.28125 12.0312 6.03125C13.0938 3.76042 14.4688 1.88542 16.1562 0.40625L20.2188 2.78125C19.3229 4.28125 18.6458 5.8125 18.1875 7.375C17.7292 8.91667 17.5 10.6146 17.5 12.4688V18.3125H10.4688Z" fill="#F2BE5C"/>
</svg>
