<svg width="58" height="81" viewBox="0 0 58 81" fill="none" xmlns="http://www.w3.org/2000/svg">
<g opacity="0.1">
<path d="M25.6923 17.704C24.9518 16.6938 23.6852 16.0107 22.4284 15.9145C20.9279 15.799 19.5542 16.2993 18.5312 17.3865C17.7615 18.2043 17.3815 19.2722 17.0308 20.3113C16.8359 20.8693 16.5923 21.4274 16.4949 22.0142C15.8908 22.0623 15.2965 22.2836 14.8386 22.6204C14.1176 23.1399 13.6792 23.9192 13.2894 24.6985C12.89 25.4971 12.7049 26.3918 12.8413 27.2866C12.8997 27.6522 13.0069 28.0082 13.1043 28.3642C13.1043 28.3834 13.1141 28.4026 13.1238 28.4315C12.9972 28.5854 12.8802 28.7298 12.7633 28.8837C12.0618 29.8169 11.5713 30.8645 12 31.9998C12.1851 32.4808 12.2175 33.0572 12.5 33.4998C12.7046 33.952 13.1688 34.6245 13.5 34.9998C13.7144 35.3076 14.1468 35.2048 14.4196 35.4741C14.2637 35.6954 14.1371 35.9263 14.0299 36.1572C13.6889 36.8788 13.7863 37.6485 14.1566 38.2643C14.1663 38.2835 14.1761 38.3028 14.1761 38.322C14.595 39.3418 15.5108 40.2077 16.5728 40.5637C17.0015 40.708 17.4302 40.7658 17.8492 40.7561C17.9174 41.1314 18.0538 41.4873 18.2389 41.8337C18.8624 42.9786 19.3308 43.8648 20.5 44.4998C20.7728 44.6537 21.3177 44.8643 21.6197 44.9509C21.5515 45.3358 21.5223 45.7206 21.5125 46.1247C21.5028 46.7405 21.461 47.384 21.5 47.9998C21.5097 48.1345 21.4903 48.3555 21.5 48.4998C21.461 48.798 21.5515 48.9725 21.4736 49.2708C21.3761 49.6075 21.3274 49.9787 21.4736 50.3154C21.2397 50.7869 21.23 51.2624 21.2008 51.7819C21.191 51.9936 21.4443 52.0705 21.5905 51.9743C21.6294 51.9839 21.6587 51.9839 21.6976 51.9743C21.7658 51.9551 21.834 51.9455 21.9023 51.9262C21.9412 51.9647 21.9899 51.9839 22.0581 51.9839C23.3442 52.0224 24.6693 52.1571 25.9456 51.9936C26.2184 51.9551 26.4815 51.8974 26.7445 51.8396C27.0758 51.7627 27.3388 51.7819 27.6701 51.8011C27.7383 51.8011 27.7968 51.8011 27.865 51.7915C27.9721 51.9358 28.2254 51.8685 28.2936 51.7049C28.3619 51.5221 28.4203 51.349 28.4593 51.1565C28.4788 51.0603 28.5779 51.0575 28.5 50.9998C28.7825 50.5957 28.7808 50.002 28.7516 49.4728C28.6834 48.3279 28.5275 47.1926 28.4788 46.0477C28.469 45.7302 28.4593 45.4224 28.4593 45.1049C28.4593 44.9798 28.4593 44.8547 28.4593 44.7296C28.4593 44.6431 28.4593 44.5372 28.4593 44.4891C28.469 43.9407 28.4885 43.3827 28.5275 42.8343C28.5957 41.6798 28.7321 40.5348 28.9075 39.3899C29.0926 38.1584 29.2582 36.8596 28.9464 35.6377C28.8977 35.4645 28.849 35.2914 28.7905 35.1374C28.8003 34.9354 28.81 34.7333 28.81 34.5313C28.8685 32.3665 28.9269 30.2018 28.9757 28.037C28.9951 27.4598 28.9367 26.9595 28.5665 26.4784C28.4983 26.3822 28.5974 26.0864 28.5 25.9998C28.5682 25.0377 28.4593 24.2848 28.5567 23.3227C28.6347 22.5049 28.6625 21.4231 28 20.9998C28 21.0383 28 20.9517 28 20.9998C27.8928 20.2205 27.2512 19.6186 26.7543 19.0317C26.6568 18.9163 26.5399 18.7142 26.4425 18.6084" fill="#C7C8CA"/>
<path opacity="0.2" d="M28.5167 27.2688C28.4485 26.73 28.2634 26.2394 28.2244 25.7006C28.2147 25.614 28.1855 25.5274 28.1367 25.4504C28.2147 25.2099 28.2731 24.9598 28.3024 24.6904C28.3608 24.1997 28.3413 23.6994 28.3316 23.2087C28.3219 22.2659 28.3024 21.3134 28.1465 20.3801C27.8639 18.7445 26.8896 17.4072 25.399 16.6279C22.3299 15.0404 17.8379 16.5749 17 20C16.7856 20.8851 16.9415 21.5957 17 22.5001C17.0487 23.3179 17.2636 24.4595 18.082 24.8443C18.2573 24.9213 18.4912 24.7866 18.423 24.5845C18.0138 23.2857 17.8774 22.0061 18.1209 20.6591C18.384 19.2352 19.1732 18.1192 20.508 17.4938C21.8428 16.8684 23.5186 16.8588 24.8241 17.5804C26.003 18.225 26.7337 19.3988 26.9578 20.6976C27.104 21.5828 27.0942 22.4968 27.104 23.3915C27.104 23.8245 27.0845 24.2574 27.1137 24.6904C27.1332 24.9213 27.1722 25.1329 27.2209 25.3446C26.6363 25.2869 25.9543 25.5467 25.5938 25.9507C25.0482 26.5472 24.6585 27.9423 25.5548 28.4137C25.74 28.5099 26.0517 28.4811 26.1492 28.2598C26.2466 28.0385 26.2953 27.875 26.3051 27.644C26.3051 27.4516 26.3538 27.2881 26.4415 27.1149C26.5194 26.9706 26.7067 26.7991 26.8724 26.7414C26.8724 26.7414 26.8724 26.7414 27.3724 26.7414C27.3724 26.7414 27.8724 26.7414 27.8724 27.2414C27.8529 27.7706 28.1757 29.7219 28.2244 30.2414C28.2634 30.6551 28.3121 31.0711 28.3316 31.4848C28.3121 31.6965 28.2926 32.0313 28.2731 32.2429C28.1757 33.0607 28.2147 33.0992 28.2731 32.2429C28.3608 31.1076 28.4485 29.9724 28.5265 28.8467C28.5654 28.3175 28.5849 27.798 28.5167 27.2688Z" fill="#505050"/>
<path opacity="0.2" d="M16.4461 22.351C16.3877 22.3029 16.3 22.274 16.2513 22.2259C16.1538 22.1105 16.0174 22.2067 15.9882 22.3221C15.8518 22.3702 15.7154 22.428 15.6082 22.4664C15.3159 22.5723 15.0237 22.6781 14.7411 22.8032C14.1858 23.0629 13.7181 23.4382 13.4161 23.977C12.8217 25.016 12.1008 26.7863 12.7438 27.9312C12.8217 28.0755 12.9971 28.1814 13.1627 28.2006C13.0848 28.2968 13.0166 28.3834 12.9484 28.4796C12.2372 29.461 12.1008 30.6925 12.2761 31.8566C12.432 32.9342 12.8899 34.0021 13.5914 34.8488C14.0688 35.4357 15.2965 36.773 16.1733 36.292C16.2708 36.2342 16.3487 36.1188 16.339 36.0033C16.3097 35.6185 16.0077 35.3587 15.7252 35.1182C15.3939 34.8199 15.0626 34.5409 14.7898 34.1849C14.2637 33.5018 13.874 32.7514 13.6889 31.9047C13.5135 31.0677 13.5427 30.1441 14.0006 29.4033C14.215 29.0569 14.5073 28.7779 14.8385 28.5374C15.2185 28.268 15.4426 28.0659 15.6375 27.6426C15.6959 27.5175 15.6764 27.3732 15.54 27.2866C14.9067 26.9018 14.2734 27.1615 13.7376 27.5945C13.7376 27.3924 13.6986 27.1808 13.6791 27.0076C13.6109 26.363 13.8155 25.7088 14.0104 25.1026C14.2052 24.4676 14.4293 23.9481 15.0237 23.5825C15.4523 23.3131 16.1149 23.188 16.4364 22.7936C16.5436 22.6492 16.5825 22.4664 16.4461 22.351Z" fill="#505050"/>
<path opacity="0.2" d="M17.8491 32.7321C17.5179 32.4339 17.0892 32.4243 16.7384 32.1645C16.4754 31.9721 16.261 31.6834 16.222 31.3563C16.1733 31.0196 16.2415 30.6732 16.4072 30.375C16.5923 30.0479 16.8846 29.7977 17.021 29.461C17.1184 29.2397 16.8359 28.9703 16.6118 29.0569C16.0369 29.2685 15.6082 29.4032 15.238 29.9324C14.8678 30.4519 14.7021 31.0869 14.7996 31.7219C14.897 32.3665 15.238 32.963 15.7544 33.3768C16.2805 33.8001 17.0697 34.1753 17.7225 33.8001C18.0732 33.5788 18.1804 33.0208 17.8491 32.7321Z" fill="#505050"/>
<path opacity="0.2" d="M25.1077 30.221C25.0882 30.0286 24.8251 29.9324 24.7277 30.1152C24.1626 31.1447 23.5098 32.3377 22.2822 32.6263C21.7951 32.7418 21.0156 32.8187 20.5479 32.5686C20.2849 32.4339 20.1193 32.1356 19.9439 31.9144C19.8465 31.7893 19.7393 31.6546 19.6321 31.5391C19.5347 31.4429 19.3593 31.366 19.2911 31.2505C19.2619 31.2024 19.2034 31.1928 19.1644 31.212C18.2681 31.7027 18.8916 32.8476 19.408 33.4152C20.0803 34.1465 21.2397 34.2523 22.175 34.1272C23.0422 34.0118 23.9483 33.6558 24.5231 32.9727C25.2051 32.1741 25.1856 31.2216 25.1077 30.221Z" fill="#505050"/>
<path opacity="0.2" d="M23.1785 25.6318C22.7693 24.891 21.756 24.9198 21.1228 25.3335C20.5187 25.728 20.0413 26.4015 19.8464 27.0942C19.6516 27.8061 19.8367 28.5085 20.2849 29.0858C20.4797 29.3359 20.7038 29.5476 20.9279 29.7689C21.152 29.9901 21.3468 30.2403 21.6586 30.3557C21.8048 30.4135 21.9704 30.298 22.0094 30.1633C22.2432 29.2974 21.0156 28.7298 21.0058 27.8735C20.9961 27.4309 21.2202 26.9884 21.5222 26.6709C21.6586 26.5265 21.8535 26.3149 22.0678 26.3341C22.3991 26.363 22.477 26.565 22.8473 26.44C23.1883 26.3149 23.3539 25.9589 23.1785 25.6318Z" fill="#505050"/>
<path opacity="0.2" d="M25.624 40.6407C25.1953 40.6888 24.8154 40.9005 24.3867 40.9582C23.9872 41.0063 23.5488 40.9678 23.1785 40.8139C22.8375 40.6792 22.516 40.429 22.3893 40.0827C22.3017 39.8517 22.3309 39.6016 22.3309 39.3611C22.3211 39.0821 22.1945 38.9377 22.1458 38.6972C22.1165 38.5721 21.9509 38.4759 21.8243 38.524C21.1422 38.7934 20.9864 39.5246 21.0643 40.1981C21.1422 40.9101 21.6196 41.4873 22.2042 41.8818C22.7596 42.257 23.4416 42.4302 24.1139 42.4302C24.7569 42.4206 25.663 42.2955 26.1209 41.8048C26.4814 41.4104 26.2573 40.583 25.624 40.6407Z" fill="#505050"/>
<path opacity="0.2" d="M24.0846 43.45C22.516 43.8637 20.5577 43.527 19.8465 41.8914C19.5152 41.141 19.5444 40.1596 19.6419 39.3611C19.749 38.5337 19.9926 37.6581 20.2849 36.8788C20.3141 36.8019 20.2654 36.7056 20.1972 36.6768C20.0608 36.6094 19.9829 36.5613 19.8367 36.6094C19.8172 36.6191 19.7977 36.6479 19.8075 36.6672C19.8367 36.696 19.8562 36.7345 19.8757 36.7634C19.0183 37.3695 18.5799 38.245 18.3753 39.2745C18.1414 40.4001 18.1219 41.5932 18.6286 42.6611C19.6419 44.8259 22.3017 45.5378 24.4939 44.8836C25.4097 44.6046 25.02 43.2095 24.0846 43.45Z" fill="#505050"/>
<path opacity="0.2" d="M27.7285 50.3003C26.7737 50.4734 25.8092 50.2522 24.8641 50.1078C24.1041 49.9924 23.3539 49.9058 22.6037 49.9731C22.4868 49.3382 22.516 48.6935 22.5453 48.0393C22.594 47.2023 22.8083 46.0766 22.3991 45.3069C22.214 44.9702 21.7658 45.0375 21.571 45.3069C21.2884 45.6918 21.2689 46.1921 21.2202 46.6539C21.1618 47.1734 21.113 47.6833 21.0741 48.2029C21.0059 49.1457 21.0059 50.0982 21.3177 51.0026C21.4541 51.3874 21.5811 52.096 22 51.9998C22.9451 51.7689 24.0549 51.8459 25 51.9998C26.0133 52.1634 26.977 52.1922 28 51.9998C28.9646 51.8363 28.6834 50.1271 27.7285 50.3003Z" fill="#505050"/>
<path d="M35.1527 6.68785C34.5876 7.4383 34.1394 8.33306 33.6718 9.15085C33.4477 9.53569 32.5221 10.9211 33.2333 11.2579C34.0517 11.662 34.6656 10.4786 35.026 9.93016C35.5424 9.14123 36.1465 8.34268 36.5557 7.50564C37.0234 6.55316 35.7763 5.87006 35.1527 6.68785Z" fill="#505050"/>
<path d="M46.552 11.7581C45.5874 11.8544 44.6034 12.5952 43.8434 13.1628C43.444 13.4611 43.0543 13.769 42.6938 14.1153C42.3528 14.4328 41.9046 14.8561 41.8364 15.3372C41.7779 15.7413 42.0605 16.0684 42.4892 15.9818C42.9276 15.8952 43.2881 15.5296 43.6193 15.2506C43.9604 14.962 44.3208 14.6926 44.6911 14.4328C45.0418 14.1923 45.4121 13.9614 45.792 13.7497C46.2207 13.5092 46.7176 13.3456 47.0781 13.0089C47.5068 12.5952 47.195 11.6908 46.552 11.7581Z" fill="#505050"/>
<path d="M22.8765 10.4882C22.6719 9.59341 22.0776 8.70827 21.5709 7.93858C21.0546 7.15927 20.4505 6.303 19.6126 5.8508C18.9891 5.51407 18.3363 6.21641 18.6675 6.77443C18.9988 7.52487 19.5347 8.16949 19.9731 8.86221C20.4408 9.60303 20.7525 10.4401 21.2397 11.1713C21.795 11.9987 23.1103 11.4888 22.8765 10.4882Z" fill="#505050"/>
<path d="M14.6339 14.048C14.1663 13.8075 13.6402 13.6824 13.1335 13.5284C12.6464 13.3745 12.1592 13.2206 11.6623 13.0859C10.9901 12.9031 9.61631 12.4894 9.11942 13.2013C9.09019 13.2494 9.0707 13.3072 9.08045 13.3649C9.08045 13.4996 9.11942 13.6247 9.18762 13.7305C9.18762 13.7497 9.2071 13.769 9.21685 13.7786C9.34351 13.9614 9.54811 14.1153 9.704 14.25C10.084 14.5579 10.6004 14.7215 11.0583 14.885C11.5064 15.0582 11.9644 15.1929 12.4223 15.3468C12.8997 15.5008 13.3868 15.7221 13.8837 15.799C14.3611 15.8664 14.8288 15.7221 15.0237 15.2506C15.199 14.8177 15.0724 14.2693 14.6339 14.048Z" fill="#505050"/>
<path d="M9.82092 22.5915C8.98302 22.3991 8.05744 22.428 7.19031 22.3702C6.51805 22.3221 5.3294 22.1105 4.83251 22.6685C4.70585 22.8032 4.65713 23.0245 4.76431 23.1976C5.18326 23.8519 6.3037 23.823 7.00519 23.8904C7.85283 23.9673 8.76868 24.1405 9.61632 24.0924C10.4445 24.0251 10.7173 22.7839 9.82092 22.5915Z" fill="#505050"/>
<path d="M52.3198 18.0503C51.784 17.7617 51.2384 17.8868 50.6635 17.9926C50.1472 18.0888 49.6308 18.2139 49.1242 18.3678C48.637 18.5122 48.1596 18.7142 47.7309 18.9644C47.5068 19.099 47.3412 19.2722 47.195 19.4743C47.0976 19.609 47.0391 19.8399 46.9417 19.9457C46.8053 20.0804 46.9515 20.2632 47.1171 20.244C47.1268 20.244 47.1463 20.244 47.1561 20.2343C47.4191 20.3979 47.8478 20.3883 48.1304 20.3498C48.6175 20.2824 49.1144 20.1093 49.5821 19.9746C50.0302 19.8495 50.4882 19.7437 50.9558 19.6667C51.5209 19.5705 52.0081 19.5705 52.4757 19.1953C52.846 18.9066 52.7193 18.262 52.3198 18.0503Z" fill="#505050"/>
<path d="M54.1028 28.5373C53.3136 28.0563 52.0957 28.037 51.1994 28.0948C50.5563 28.1333 49.1046 28.3449 49.2605 29.2782C49.3774 29.9901 50.683 29.9709 51.1994 30.0094C51.5599 30.0382 51.9106 30.0863 52.2711 30.1441C52.7095 30.221 53.1577 30.375 53.6059 30.3654C54.5997 30.3461 54.9504 29.0473 54.1028 28.5373Z" fill="#505050"/>
<path d="M9.47017 32.9149C9.21685 31.6257 7.53132 32.0972 6.68368 32.3377C5.68015 32.6263 4.44279 32.9342 3.79975 33.7905C3.68284 33.9444 3.70232 34.2234 3.79975 34.3773C3.8095 34.3966 3.89718 34.5409 4.00436 34.589C4.10179 34.6275 4.18947 34.666 4.30639 34.666C4.32587 34.666 4.50125 34.6371 4.55971 34.6179C4.63765 34.6179 4.74482 34.6179 4.76431 34.6179C5.2612 34.5794 5.78732 34.387 6.27447 34.2523C6.74214 34.1272 7.2098 34.0021 7.68721 33.8963C8.06718 33.8097 8.33999 33.9059 8.71996 33.8867C9.24608 33.8578 9.5676 33.4249 9.47017 32.9149Z" fill="#505050"/>
<path d="M12.1885 40.2847C11.3213 40.3328 10.5127 41.141 9.85989 41.6509C9.20711 42.1608 8.39844 42.7477 8.00872 43.4789C7.7554 43.9407 8.18409 44.6815 8.76867 44.4603C9.52862 44.162 10.2009 43.5559 10.8537 43.0652C11.1849 42.8247 11.5162 42.5842 11.8475 42.3533C12.2079 42.1031 12.6659 41.8433 12.8607 41.4296C13.0848 40.939 12.8218 40.2462 12.1885 40.2847Z" fill="#505050"/>
<path d="M14.5463 45.9323C13.952 46.5577 13.6889 47.4813 13.3576 48.2606C13.0166 49.0592 12.8607 49.7711 12.9582 50.637C12.9582 50.6755 13.0069 50.714 13.0459 50.6851C13.7181 50.2233 14.1955 49.6941 14.595 48.9822C15.0042 48.251 15.6375 47.5005 15.8324 46.6827C16.0077 45.9708 15.0919 45.355 14.5463 45.9323Z" fill="#505050"/>
<path d="M53.8495 36.3497C53.4695 35.4164 52.3393 35.2336 51.4625 34.9161C51.0532 34.7718 50.644 34.6083 50.2056 34.5794C49.8159 34.5505 49.2508 34.7622 49.28 35.2432C49.3287 36.0803 50.2835 36.494 50.9558 36.8019C51.706 37.1482 52.6803 37.7159 53.4793 37.2348C53.7618 37.0712 53.9761 36.6768 53.8495 36.3497Z" fill="#505050"/>
<path d="M51.9886 42.1993C51.2773 41.8625 50.4979 41.6509 49.7574 41.3815C49.1534 41.1602 48.3155 40.7176 47.6724 40.9004C47.4094 40.9774 47.2827 41.2372 47.3314 41.4873C47.4776 42.1704 48.3934 42.6996 48.9488 43.0363C49.621 43.4404 50.42 43.8637 51.1897 44.0369C51.6865 44.1427 52.2029 43.9311 52.3978 43.45C52.5829 43.0267 52.4562 42.4206 51.9886 42.1993Z" fill="#505050"/>
<path d="M47.8088 48.7513C47.5945 47.9912 46.7858 47.4235 46.2305 46.904C45.9577 46.6442 45.6751 46.3941 45.3828 46.1536C45.0321 45.8649 44.7398 45.7495 44.3209 45.5763C43.8824 45.3935 43.3855 45.9323 43.5414 46.346C43.6876 46.7212 43.7947 47.0195 44.048 47.337C44.3014 47.6544 44.5644 47.9623 44.8372 48.2702C45.3536 48.8571 45.8895 49.646 46.6592 49.8769C47.3509 50.0982 47.994 49.4151 47.8088 48.7513Z" fill="#505050"/>
<path d="M46.0356 31.0869C46.0356 37.1482 42.4307 42.3821 37.2182 44.8066V51.9166H30.6904V15.9337C39.1668 15.9337 46.0356 22.7166 46.0356 31.0869Z" fill="#FFD335" stroke="#505050" stroke-miterlimit="10" stroke-linecap="round" stroke-linejoin="round"/>
<path d="M35.2988 53.4848V58.0837C35.2988 59.3152 34.2856 60.3254 33.0287 60.3254H25.702C24.4549 60.3254 23.4319 59.3249 23.4319 58.0837V53.4848H35.2988Z" stroke="#505050" stroke-miterlimit="10"/>
<path d="M17.9368 24.6793C16.3682 22.4761 16.7579 19.0509 19.0768 17.4731C21.4151 15.8856 24.8544 16.3955 26.4522 18.7623C27.2998 20.0227 27.7578 21.6294 28.0501 23.1014C28.3521 24.6119 28.2644 26.084 28.2644 27.6041C28.2644 31.4237 28.2644 35.2432 28.2644 39.0628C28.2644 43.3923 28.2644 47.7218 28.2644 52.0513C28.43 51.8877 28.5859 51.7338 28.7516 51.5702C26.1989 51.5221 23.656 51.4837 21.1033 51.4355C21.2689 51.5991 21.4248 51.753 21.5905 51.9166C21.6002 49.6653 21.6099 47.4139 21.6197 45.1722C21.6197 44.5565 20.6454 44.5565 20.6454 45.1722C20.6356 47.4235 20.6259 49.6749 20.6162 51.9166C20.6162 52.1764 20.8402 52.3977 21.1033 52.3977C23.656 52.4458 26.1989 52.4842 28.7516 52.5323C29.0146 52.5323 29.2387 52.3111 29.2387 52.0513C29.2387 47.8469 29.2387 43.6521 29.2387 39.4477C29.2387 35.2817 29.1413 31.1062 29.2387 26.9402C29.2777 25.3143 29.2387 23.746 28.8295 22.1489C28.4495 20.6384 27.9331 19.0317 26.9296 17.7906C25.0102 15.4142 21.3371 14.9139 18.7552 16.5302C15.8908 18.3197 15.1698 22.4568 17.0989 25.17C17.4497 25.6703 18.2973 25.1892 17.9368 24.6793Z" fill="#505050"/>
<path d="M16.3293 21.1002C13.153 22.2163 11.3214 25.5933 12.1885 28.826C12.3444 29.4225 13.2894 29.1723 13.1238 28.5662C12.4028 25.8627 13.913 22.9667 16.5826 22.0239C17.1769 21.8218 16.9236 20.8886 16.3293 21.1002Z" fill="#505050"/>
<path d="M14.7314 26.6901C13.5525 26.5939 12.5879 27.8061 12.0813 28.7298C11.5162 29.7592 11.2726 30.9522 11.4285 32.1164C11.7208 34.3677 13.494 36.2438 15.7154 36.773C16.3292 36.9173 16.5826 35.9937 15.9785 35.8494C14.2248 35.4357 12.7925 34.0406 12.4418 32.2799C12.2664 31.3948 12.3833 30.4519 12.7341 29.6245C13.0361 28.9029 13.8058 27.5945 14.7314 27.6714C15.3549 27.7003 15.3549 26.7382 14.7314 26.6901Z" fill="#505050"/>
<path d="M13.8058 35.4261C12.9874 36.494 13.114 38.0334 13.8448 39.1206C14.6437 40.3232 16.0077 40.9678 17.362 41.3815C17.9661 41.5643 18.2194 40.6407 17.6251 40.4579C16.5728 40.1404 15.4621 39.669 14.7801 38.7646C14.1468 37.9372 14.0007 36.773 14.6534 35.9167C15.0237 35.4164 14.176 34.945 13.8058 35.4261Z" fill="#505050"/>
<path d="M19.2814 36.3978C17.4887 38.245 16.9138 41.0544 18.1609 43.3442C19.4665 45.7591 22.2432 46.1824 24.7082 45.4993C25.3123 45.3358 25.059 44.4025 24.4452 44.5757C22.3894 45.153 20.0998 44.8932 18.9988 42.8632C17.9661 40.9486 18.4825 38.601 19.9634 37.0809C20.4018 36.6287 19.7101 35.9456 19.2814 36.3978Z" fill="#505050"/>
<path d="M21.0936 38.5337C20.2849 39.8518 20.5772 41.6798 21.8243 42.6323C23.0714 43.5847 24.942 43.3923 26.0235 42.2955C26.462 41.8529 25.7702 41.1698 25.3318 41.6124C24.5816 42.3725 23.276 42.536 22.4089 41.8722C21.5417 41.2083 21.3664 39.9191 21.9217 39.0147C22.2627 38.4856 21.4248 37.9949 21.0936 38.5337Z" fill="#505050"/>
<path d="M23.8216 35.8398C24.0652 38.0237 26.5009 39.2745 28.4008 38.0237C28.9172 37.687 28.43 36.85 27.9136 37.1963C26.686 38.0045 24.9713 37.3599 24.7959 35.8398C24.7277 35.224 23.7534 35.224 23.8216 35.8398Z" fill="#505050"/>
<path d="M24.3867 30.856C24.3185 32.3281 23.3832 33.7327 21.8438 34.0021C20.4213 34.2523 19.0086 33.2517 19.0183 31.7797C19.0183 31.1639 18.044 31.1639 18.044 31.7797C18.0343 33.7616 19.8757 35.2144 21.8243 34.9642C23.9288 34.7045 25.2636 32.8476 25.361 30.8464C25.3902 30.2403 24.4159 30.2403 24.3867 30.856Z" fill="#505050"/>
<path d="M21.6879 29.9901C20.7818 29.2974 20.0024 28.2968 20.1193 27.0942C20.2167 26.0359 21.2787 24.9968 22.3991 25.5067C22.9642 25.7665 23.4611 24.9294 22.8863 24.6793C21.3956 24.0058 19.7296 24.8717 19.2619 26.3822C18.7553 28.037 19.6906 29.6726 20.9961 30.6636C21.4833 31.0484 22.175 30.3653 21.6879 29.9901Z" fill="#505050"/>
<path d="M20.0608 22.5915C19.8757 21.1291 20.9474 19.7533 22.516 19.8687C23.997 19.9842 24.8544 21.4466 24.4841 22.7936C24.3185 23.3901 25.2538 23.6498 25.4195 23.0533C25.9553 21.1387 24.6985 19.1375 22.6622 18.9259C20.5577 18.7046 18.8332 20.5518 19.0865 22.5915C19.1547 23.1976 20.1388 23.2073 20.0608 22.5915Z" fill="#505050"/>
<path d="M25.7897 28.0178C25.3025 27.2289 25.6435 26.1706 26.5984 25.9493C27.5629 25.7376 28.3436 26.5458 28.2656 27.4598C28.2169 28.0755 29.1608 28.0755 29.2095 27.4598C29.3361 25.9012 27.8747 24.6504 26.3353 25.016C24.7764 25.3816 24.1236 27.1808 24.9421 28.4989C25.2831 29.028 26.121 28.547 25.7897 28.0178Z" fill="#505050"/>
<path d="M16.1539 29.0184C15.0334 29.586 14.3806 30.8657 14.634 32.0875C14.8873 33.3287 16.0175 34.1946 17.2548 34.31C17.8784 34.3677 17.8784 33.4056 17.2548 33.3479C16.4462 33.2709 15.7057 32.6263 15.5693 31.8278C15.4329 31.01 15.92 30.2114 16.641 29.8458C17.1964 29.5668 16.7092 28.7394 16.1539 29.0184Z" fill="#505050"/>
<path d="M23.7144 58.0837H35.0065" stroke="#505050" stroke-miterlimit="10" stroke-linecap="round" stroke-linejoin="round"/>
<path d="M23.6754 55.6496H35.0455" stroke="#505050" stroke-miterlimit="10" stroke-linecap="round" stroke-linejoin="round"/>
<path d="M31.8401 60.5467C31.8401 61.8937 30.7294 62.9905 29.3653 62.9905C28.0013 62.9905 26.8906 61.8937 26.8906 60.5467C26.8906 60.4698 26.8906 60.3928 26.9004 60.3158H31.8206C31.8303 60.3928 31.8401 60.4698 31.8401 60.5467Z" fill="#FFD335" stroke="#505050" stroke-miterlimit="10"/>
<path d="M30.6904 35.6858C32.7949 35.9264 34.4122 35.6281 35.4157 35.3491C36.6336 35.0124 37.7053 34.6949 37.9489 33.8578C38.1925 33.0304 37.5884 31.8759 36.8772 31.7412C35.4839 31.4718 33.7594 35.1086 33.5256 35.6281C33.282 36.5902 33.0677 37.61 32.8826 38.6684C32.0447 43.7483 32.3954 48.2895 33.0774 51.907" stroke="#505050" stroke-miterlimit="10"/>
<path d="M32.7656 18.8489C34.2466 19.2145 35.7275 19.6378 37.0428 20.4172C38.2315 21.1195 39.2155 22.1008 40.0144 23.2073C41.7487 25.6029 43.0737 28.5374 43.2101 31.5007C43.2491 32.4243 44.7106 32.4339 44.6716 31.5007C44.5352 28.2391 43.1225 24.9679 41.1836 22.351C40.2678 21.1099 39.1863 20.0131 37.8515 19.2049C36.4095 18.339 34.7824 17.8483 33.1554 17.4442C32.2395 17.2326 31.8498 18.618 32.7656 18.8489Z" fill="white"/>
</g>
</svg>
