<svg width="7" height="22" viewBox="0 0 7 22" fill="none" xmlns="http://www.w3.org/2000/svg">
<path d="M5.71 16.35C6.27 16.91 6.55 17.59 6.55 18.39C6.55 19.19 6.27 19.87 5.71 20.43C5.15 20.99 4.47 21.27 3.67 21.27C2.87 21.27 2.19 20.99 1.63 20.43C1.07 19.87 0.79 19.19 0.79 18.39C0.79 17.57 1.06 16.89 1.6 16.35C2.16 15.79 2.85 15.51 3.67 15.51C4.47 15.51 5.15 15.79 5.71 16.35ZM1.12 0.569998H6.19C6.53 0.569998 6.68 0.749998 6.64 1.11L5.29 13.26C5.25 13.62 5.07 13.8 4.75 13.8H2.59C2.27 13.8 2.09 13.62 2.05 13.26L0.7 1.11C0.66 0.749998 0.8 0.569998 1.12 0.569998Z" fill="#FF6543"/>
</svg>
