<svg width="25" height="25" viewBox="0 0 25 25" fill="none" xmlns="http://www.w3.org/2000/svg">
<g opacity="0.5" clip-path="url(#clip0)">
<path d="M14.6144 4.96219L14.6144 4.96219C15.7855 3.79106 17.6923 3.79106 18.8634 4.96219L19.217 4.60864L18.8634 4.96219C20.0345 6.13333 20.0345 8.04009 18.8634 9.21122L10.3453 17.7293L10.3453 17.7293C10.2022 17.8725 9.96996 17.8725 9.82673 17.7293C9.68352 17.5861 9.68352 17.3539 9.82673 17.2107L18.3448 8.69257C19.2306 7.80677 19.2306 6.36659 18.3448 5.48079C17.9165 5.05247 17.3446 4.81559 16.7389 4.81559C16.1333 4.81559 15.5613 5.05244 15.133 5.48079C15.133 5.4808 15.133 5.48081 15.133 5.48082L3.55258 17.0612C2.02079 18.593 2.02079 21.0844 3.55258 22.6161L3.55259 22.6162C4.29384 23.3573 5.28182 23.7666 6.33003 23.7666C7.37822 23.7666 8.36627 23.3573 9.10748 22.6161L20.9597 10.7639C22.0139 9.70974 22.5954 8.30573 22.5954 6.81494C22.5954 5.32414 22.0139 3.92013 20.9597 2.86598C18.7819 0.688148 15.2395 0.688214 13.0618 2.86598L4.27189 11.6558L4.27186 11.6558C4.12872 11.799 3.89653 11.799 3.75329 11.6558C3.61008 11.5126 3.61008 11.2804 3.75329 11.1372L12.5432 2.34733C15.0063 -0.115777 19.0152 -0.115777 21.4783 2.34733L21.8319 1.99378L21.4783 2.34734C22.6724 3.54132 23.3289 5.12635 23.3289 6.81494C23.3289 8.50351 22.6724 10.0885 21.4783 11.2825L9.62607 23.1347L9.62606 23.1347C8.74502 24.0158 7.57608 24.5 6.33003 24.5C5.08399 24.5 3.91503 24.0158 3.03398 23.1347C1.21686 21.3176 1.21686 18.3598 3.03398 16.5426L14.6144 4.96219Z" stroke="#474747"/>
</g>
<defs>
<clipPath id="clip0">
<rect width="25" height="25" fill="white"/>
</clipPath>
</defs>
</svg>
